<svg width="104" height="23" viewBox="0 0 104 23" fill="none" xmlns="http://www.w3.org/2000/svg">
<path d="M7.94459 4.40991C9.30929 4.40991 10.5058 4.69732 11.5343 5.27018C12.5607 5.84499 13.3565 6.64465 13.9195 7.67111C14.4826 8.69365 14.7642 9.88825 14.7642 11.2529C14.7485 12.5883 14.4533 13.7594 13.8804 14.7644C13.3056 15.7713 12.5118 16.5592 11.4951 17.1262C10.4785 17.6893 9.29365 17.9708 7.94459 17.9708C6.61509 17.9708 5.43613 17.6893 4.40968 17.1262C3.38127 16.5592 2.58161 15.7713 2.00875 14.7644C1.4398 13.7594 1.14848 12.5883 1.13284 11.2529C1.13284 9.88825 1.41634 8.69365 1.98529 7.67111C2.55815 6.64465 3.35585 5.84499 4.3784 5.27018C5.40485 4.69732 6.59358 4.40991 7.94459 4.40991ZM7.94459 15.4057C9.10595 15.4057 10.0327 15.0225 10.7209 14.2561C11.413 13.4857 11.761 12.4847 11.761 11.2529C11.761 9.99187 11.413 8.96542 10.7209 8.17162C10.0327 7.37392 9.10595 6.97507 7.94459 6.97507C6.80278 6.97507 5.87995 7.37392 5.1761 8.17162C4.47615 8.96542 4.12814 9.99187 4.12814 11.2529C4.12814 12.4847 4.47615 13.4857 5.1761 14.2561C5.87995 15.0225 6.80278 15.4057 7.94459 15.4057Z" fill="white" fill-opacity="0.4"/>
<path d="M20.3247 4.66797C20.7822 4.66797 21.1478 4.76768 21.4196 4.96515C21.6953 5.15871 21.8341 5.47936 21.8341 5.92709C21.8341 6.33376 21.6953 6.65831 21.4196 6.89684C21.1478 7.13733 20.7822 7.25659 20.3247 7.25659C19.2455 7.25659 18.4869 7.64371 18.0489 8.41404C17.6149 9.18046 17.3998 10.2206 17.3998 11.5345V16.4067C17.3998 16.7821 17.261 17.0949 16.9853 17.3452C16.7135 17.5915 16.3831 17.7127 15.9921 17.7127C15.5483 17.7127 15.1885 17.5915 14.9128 17.3452C14.6411 17.0949 14.5062 16.7821 14.5062 16.4067V5.97401C14.5062 5.56343 14.6626 5.24278 14.9754 5.01208C15.2921 4.78332 15.6323 4.66797 15.9921 4.66797C16.3518 4.66797 16.6744 4.78137 16.9618 5.00425C17.2532 5.22323 17.3998 5.54779 17.3998 5.97401V6.13042C17.7752 5.63577 18.2092 5.2682 18.7058 5.02772C19.2005 4.78919 19.7401 4.66797 20.3247 4.66797Z" fill="white" fill-opacity="0.4"/>
<path d="M26.6763 15.2803C27.0712 15.0574 27.427 14.9792 27.7399 15.0457C28.0566 15.1141 28.3127 15.2647 28.5063 15.4993C28.7038 15.73 28.8035 15.9978 28.8035 16.3048C28.8035 16.5238 28.735 16.7467 28.6001 16.9695C28.4633 17.1944 28.2502 17.3821 27.9588 17.5326C27.5835 17.736 27.2413 17.8572 26.9343 17.9002C26.6254 17.9471 26.2657 17.9706 25.8551 17.9706C24.7446 17.9706 23.8882 17.7399 23.2899 17.2824C22.6956 16.819 22.285 16.2188 22.0621 15.4836C21.8431 14.7485 21.7336 13.9723 21.7336 13.1531V7.09994H20.7561C20.2751 7.09994 19.9212 6.97285 19.6925 6.71673C19.4637 6.46256 19.3484 6.18884 19.3484 5.89556C19.3484 5.5886 19.4696 5.30706 19.7081 5.05094C19.9466 4.79677 20.2966 4.66773 20.7561 4.66773H21.7336V2.46232C21.7336 2.02045 21.8764 1.68808 22.1638 1.4691C22.4551 1.24621 22.7894 1.13281 23.1648 1.13281C23.5246 1.13281 23.8569 1.24621 24.1659 1.4691C24.4728 1.68808 24.6273 2.02045 24.6273 2.46232V4.66773H26.6293C27.0712 4.66773 27.4134 4.79677 27.6538 5.05094C27.8924 5.30706 28.0136 5.5886 28.0136 5.89556C28.0136 6.20448 27.8924 6.48211 27.6538 6.73237C27.4134 6.97872 27.0712 7.09994 26.6293 7.09994H24.6273V13.1531C24.6273 13.5285 24.6527 13.8921 24.7055 14.2402C24.7563 14.5901 24.8717 14.8814 25.0496 15.1161C25.2255 15.3468 25.4954 15.4602 25.8551 15.4602C25.9959 15.4602 26.1464 15.4406 26.3087 15.3976C26.469 15.3507 26.5922 15.3116 26.6763 15.2803Z" fill="white" fill-opacity="0.4"/>
<path d="M35.5718 4.40965C36.7645 4.40965 37.7792 4.67164 38.614 5.19171C39.4528 5.71373 40.0941 6.43518 40.5379 7.35802C40.9856 8.28085 41.2105 9.35814 41.2105 10.5879V16.383C41.2105 16.774 41.0854 17.0947 40.8351 17.3449C40.5887 17.5913 40.227 17.7125 39.748 17.7125C39.3199 17.7125 38.9679 17.5913 38.6923 17.3449C38.4205 17.0947 38.2856 16.774 38.2856 16.383V10.5332C38.2856 9.47545 38.0314 8.61713 37.527 7.9602C37.0265 7.30327 36.2366 6.97481 35.1573 6.97481C34.8328 6.97481 34.4535 7.0491 34.0155 7.19378C33.5815 7.34042 33.1592 7.57504 32.7486 7.89764C32.3419 8.22219 31.9998 8.6406 31.7241 9.15676C31.4523 9.66901 31.3174 10.2986 31.3174 11.0493V16.383C31.3174 16.774 31.1923 17.0947 30.942 17.3449C30.6957 17.5913 30.3418 17.7125 29.8784 17.7125C29.419 17.7125 29.0514 17.5913 28.7757 17.3449C28.504 17.0947 28.369 16.774 28.369 16.383V2.36065C28.369 1.96962 28.5255 1.66852 28.8383 1.45346C29.155 1.24035 29.4952 1.13281 29.855 1.13281C30.2304 1.13281 30.5666 1.24035 30.8638 1.45346C31.1649 1.66852 31.3174 1.96962 31.3174 2.36065V5.84864C32.0154 5.25036 32.7408 4.86129 33.4915 4.68337C34.2423 4.50154 34.9344 4.40965 35.5718 4.40965Z" fill="white" fill-opacity="0.4"/>
<path d="M48.5336 4.40991C49.8983 4.40991 51.0949 4.69732 52.1233 5.27018C53.1498 5.84499 53.9455 6.64465 54.5086 7.67111C55.0717 8.69365 55.3532 9.88825 55.3532 11.2529C55.3376 12.5883 55.0423 13.7594 54.4695 14.7644C53.8947 15.7713 53.1009 16.5592 52.0842 17.1262C51.0675 17.6893 49.8827 17.9708 48.5336 17.9708C47.2041 17.9708 46.0252 17.6893 44.9987 17.1262C43.9703 16.5592 43.1707 15.7713 42.5978 14.7644C42.0289 13.7594 41.7375 12.5883 41.7219 11.2529C41.7219 9.88825 42.0054 8.69365 42.5743 7.67111C43.1472 6.64465 43.9449 5.84499 44.9674 5.27018C45.9939 4.69732 47.1826 4.40991 48.5336 4.40991ZM48.5336 15.4057C49.695 15.4057 50.6217 15.0225 51.31 14.2561C52.0021 13.4857 52.3501 12.4847 52.3501 11.2529C52.3501 9.99187 52.0021 8.96542 51.31 8.17162C50.6217 7.37392 49.695 6.97507 48.5336 6.97507C47.3918 6.97507 46.469 7.37392 45.7651 8.17162C45.0652 8.96542 44.7172 9.99187 44.7172 11.2529C44.7172 12.4847 45.0652 13.4857 45.7651 14.2561C46.469 15.0225 47.3918 15.4057 48.5336 15.4057Z" fill="white" fill-opacity="0.4"/>
<path d="M54.3288 14.6627C54.2076 14.1837 54.3171 13.8005 54.6573 13.5131C55.0014 13.2218 55.3768 13.0751 55.7834 13.0751C56.0904 13.0751 56.3641 13.167 56.6046 13.3489C56.8431 13.5268 57.023 13.7927 57.1442 14.1466C57.2478 14.4555 57.4688 14.7077 57.809 14.9052C58.1531 15.1046 58.548 15.2473 58.9977 15.3353C59.4513 15.4194 59.9088 15.4604 60.3741 15.4604C61.297 15.4604 62.0399 15.2942 62.603 14.9599C63.1661 14.6275 63.4476 14.2052 63.4476 13.693C63.4476 13.3332 63.299 13.0673 63.0019 12.8953C62.7047 12.7232 62.3097 12.604 61.8209 12.5355C61.3361 12.469 60.8199 12.4163 60.2725 12.3791C59.553 12.3126 58.8452 12.2286 58.1531 12.1289C57.4649 12.0252 56.8392 11.8512 56.2761 11.6049C55.7131 11.3546 55.2595 10.987 54.9154 10.5022C54.5712 10.0134 54.3992 9.35058 54.3992 8.51573C54.3992 7.69261 54.6377 6.97312 55.1187 6.35724C55.5977 5.74333 56.2722 5.26627 57.1442 4.92607C58.0143 4.58197 59.0231 4.40991 60.1708 4.40991C60.8375 4.40991 61.555 4.47639 62.3215 4.60543C63.0879 4.73056 63.7996 4.99255 64.4565 5.38749C65.1173 5.77852 65.6022 6.38462 65.9111 7.20187C66.0304 7.54598 66.0206 7.85098 65.8798 8.11688C65.743 8.38278 65.5436 8.58416 65.2777 8.71907C65.0157 8.85593 64.7478 8.9224 64.4721 8.9224C64.1632 8.9224 63.911 8.86375 63.7135 8.74253C63.52 8.62326 63.3557 8.41797 63.2208 8.1247C63.0644 7.77082 62.8005 7.50687 62.431 7.33482C62.0653 7.16277 61.6743 7.05719 61.2579 7.01417C60.8395 6.97312 60.4778 6.95161 60.1708 6.95161C59.3144 6.95161 58.6262 7.09825 58.1062 7.38956C57.5841 7.67697 57.3241 8.06018 57.3241 8.53919C57.3241 8.94586 57.459 9.2235 57.7308 9.36818C58.0064 9.51481 58.3799 9.60084 58.8491 9.62626C59.3184 9.65363 59.8443 9.70055 60.4289 9.76703C61.1425 9.85697 61.8483 9.95277 62.5483 10.0564C63.2521 10.1561 63.8934 10.3301 64.4721 10.5804C65.0548 10.8267 65.5162 11.1943 65.8564 11.6831C66.2005 12.168 66.3725 12.8386 66.3725 13.693C66.3725 14.5278 66.1184 15.2708 65.6139 15.9218C65.1076 16.569 64.4057 17.0715 63.5102 17.4312C62.6128 17.791 61.5668 17.9708 60.3741 17.9708C59.8423 17.9708 59.2636 17.9317 58.638 17.8535C58.0162 17.7753 57.4121 17.6228 56.8236 17.3921C56.2331 17.1634 55.717 16.8329 55.2751 16.3989C54.8313 15.9609 54.5165 15.3822 54.3288 14.6627Z" fill="white" fill-opacity="0.4"/>
<path d="M77.2351 4.66797C77.677 4.66797 78.0582 4.86153 78.3769 5.24669C78.6936 5.62795 78.7562 6.07568 78.5646 6.59184L71.0881 21.2789C70.916 21.6015 70.6971 21.8577 70.4312 22.0454C70.1653 22.2331 69.8876 22.3269 69.6022 22.3269C69.3089 22.3269 69.0391 22.2272 68.7888 22.0297C68.5425 21.8303 68.3743 21.5781 68.2805 21.2711C68.1866 20.9681 68.2258 20.6455 68.3978 20.3014L70.3451 16.4536L65.293 6.69351C65.1425 6.3494 65.121 6.02484 65.2305 5.71593C65.3399 5.40897 65.5218 5.15871 65.7779 4.96515C66.0321 4.76768 66.3136 4.66797 66.6225 4.66797C66.8982 4.66797 67.1641 4.754 67.4202 4.92605C67.6744 5.0981 67.8621 5.32099 67.9833 5.5908L71.9327 13.3019L75.8743 5.56734C75.9936 5.29166 76.1734 5.07269 76.4139 4.91041C76.6525 4.75008 76.9262 4.66797 77.2351 4.66797Z" fill="white" fill-opacity="0.4"/>
<path d="M85.8424 4.40991C87.0409 4.40991 88.0576 4.6719 88.8925 5.19197C89.7312 5.714 90.3725 6.43545 90.8163 7.35828C91.2582 8.28111 91.4811 9.3584 91.4811 10.5882V16.3833C91.4811 16.7743 91.352 17.0949 91.0979 17.3452C90.8418 17.5915 90.482 17.7128 90.0186 17.7128C89.5963 17.7128 89.2463 17.5915 88.9707 17.3452C88.6989 17.0949 88.564 16.7743 88.564 16.3833V10.5334C88.564 9.47571 88.3098 8.6174 87.8054 7.96047C87.299 7.30354 86.5013 6.97507 85.4123 6.97507C85.0838 6.97507 84.6928 7.06696 84.2392 7.24879C83.7895 7.42671 83.3477 7.69457 82.9097 8.05432C82.4757 8.41015 82.1159 8.85984 81.8305 9.40728C81.5489 9.95472 81.4081 10.6038 81.4081 11.3546V16.4067C81.4081 17.2787 80.9389 17.7128 80.0004 17.7128C79.5566 17.7128 79.1949 17.5994 78.9134 17.3687C78.6318 17.1399 78.4911 16.8193 78.4911 16.4067V5.97403C78.4911 5.54781 78.6396 5.22326 78.9368 5.00428C79.2379 4.78139 79.5781 4.66799 79.9535 4.66799C80.3074 4.66799 80.6378 4.78139 80.9467 5.00428C81.2537 5.22326 81.4081 5.53217 81.4081 5.92711V6.10698C82.1433 5.41877 82.9038 4.96518 83.6918 4.7462C84.4777 4.52331 85.1953 4.40991 85.8424 4.40991Z" fill="white" fill-opacity="0.4"/>
<path d="M101.448 8.17945C101.057 7.71607 100.595 7.38956 100.063 7.20187C99.5356 7.01417 99.0174 6.92033 98.5072 6.92033C97.3751 6.92033 96.4679 7.31136 95.7856 8.09342C95.1013 8.87157 94.7611 9.91562 94.7611 11.2295C94.7611 12.4925 95.115 13.5092 95.8247 14.2795C96.5325 15.0459 97.4611 15.4291 98.6088 15.4291C99.1191 15.4291 99.6372 15.3412 100.165 15.1632C100.697 14.9873 101.168 14.6921 101.581 14.2795C101.956 13.9041 102.326 13.7086 102.691 13.693C103.061 13.6734 103.366 13.7751 103.606 13.998C103.845 14.217 103.976 14.5044 103.997 14.8582C104.023 15.2082 103.874 15.5621 103.551 15.9218C102.883 16.657 102.116 17.1849 101.252 17.5016C100.392 17.8144 99.5004 17.9708 98.5775 17.9708C97.2324 17.9708 96.0515 17.6893 95.0348 17.1262C94.0181 16.5592 93.2243 15.7713 92.6573 14.7644C92.0943 13.7594 91.8127 12.5883 91.8127 11.2529C91.8127 9.87261 92.0884 8.67019 92.6417 7.64764C93.1989 6.62119 93.981 5.82544 94.9879 5.26236C95.9987 4.69536 97.1718 4.40991 98.5072 4.40991C99.4456 4.40991 100.318 4.55655 101.127 4.84787C101.94 5.14114 102.687 5.68858 103.372 6.49019C103.679 6.84603 103.811 7.19405 103.77 7.53816C103.727 7.88226 103.577 8.16771 103.317 8.3906C103.061 8.60958 102.758 8.71516 102.41 8.70343C102.06 8.69365 101.739 8.51964 101.448 8.17945Z" fill="white" fill-opacity="0.4"/>
<path d="M6.81175 3.2771C8.17645 3.2771 9.373 3.56451 10.4014 4.13737C11.4279 4.71218 12.2236 5.51184 12.7867 6.53829C13.3498 7.56084 13.6313 8.75544 13.6313 10.1201C13.6157 11.4555 13.3204 12.6266 12.7476 13.6316C12.1728 14.6385 11.379 15.4264 10.3623 15.9934C9.34563 16.5565 8.1608 16.838 6.81175 16.838C5.48225 16.838 4.30329 16.5565 3.27683 15.9934C2.24842 15.4264 1.44877 14.6385 0.875908 13.6316C0.306959 12.6266 0.0156412 11.4555 0 10.1201C0 8.75544 0.283497 7.56084 0.852446 6.53829C1.42531 5.51184 2.22301 4.71218 3.24555 4.13737C4.27201 3.56451 5.46074 3.2771 6.81175 3.2771ZM6.81175 14.2729C7.97311 14.2729 8.89985 13.8897 9.58806 13.1232C10.2802 12.3529 10.6282 11.3519 10.6282 10.1201C10.6282 8.85906 10.2802 7.8326 9.58806 7.03881C8.89985 6.24111 7.97311 5.84226 6.81175 5.84226C5.66994 5.84226 4.74711 6.24111 4.04325 7.03881C3.34331 7.8326 2.99529 8.85906 2.99529 10.1201C2.99529 11.3519 3.34331 12.3529 4.04325 13.1232C4.74711 13.8897 5.66994 14.2729 6.81175 14.2729Z" fill="white"/>
<path d="M19.1919 3.53491C19.6494 3.53491 20.015 3.63462 20.2867 3.8321C20.5624 4.02566 20.7012 4.3463 20.7012 4.79403C20.7012 5.2007 20.5624 5.52526 20.2867 5.76379C20.015 6.00427 19.6494 6.12353 19.1919 6.12353C18.1126 6.12353 17.354 6.51065 16.9161 7.28098C16.482 8.0474 16.2669 9.08754 16.2669 10.4014V15.2736C16.2669 15.649 16.1281 15.9619 15.8525 16.2121C15.5807 16.4585 15.2503 16.5797 14.8592 16.5797C14.4154 16.5797 14.0557 16.4585 13.78 16.2121C13.5082 15.9619 13.3733 15.649 13.3733 15.2736V4.84095C13.3733 4.43037 13.5297 4.10973 13.8426 3.87902C14.1593 3.65027 14.4995 3.53491 14.8592 3.53491C15.219 3.53491 15.5416 3.64831 15.829 3.8712C16.1203 4.09018 16.2669 4.41473 16.2669 4.84095V4.99737C16.6423 4.50271 17.0764 4.13514 17.573 3.89466C18.0676 3.65613 18.6073 3.53491 19.1919 3.53491Z" fill="white"/>
<path d="M25.5435 14.1475C25.9384 13.9246 26.2942 13.8464 26.6071 13.9129C26.9238 13.9813 27.1799 14.1318 27.3735 14.3665C27.5709 14.5972 27.6707 14.865 27.6707 15.172C27.6707 15.391 27.6022 15.6138 27.4673 15.8367C27.3305 16.0616 27.1174 16.2493 26.826 16.3998C26.4506 16.6032 26.1085 16.7244 25.8015 16.7674C25.4926 16.8143 25.1329 16.8378 24.7223 16.8378C23.6118 16.8378 22.7554 16.6071 22.1571 16.1496C21.5628 15.6862 21.1522 15.086 20.9293 14.3508C20.7103 13.6157 20.6008 12.8395 20.6008 12.0203V5.96712H19.6233C19.1423 5.96712 18.7884 5.84004 18.5597 5.58391C18.3309 5.32974 18.2155 5.05602 18.2155 4.76275C18.2155 4.45579 18.3368 4.17425 18.5753 3.91812C18.8138 3.66395 19.1638 3.53491 19.6233 3.53491H20.6008V1.3295C20.6008 0.887639 20.7436 0.555263 21.031 0.336286C21.3223 0.113399 21.6566 0 22.032 0C22.3917 0 22.7241 0.113399 23.033 0.336286C23.34 0.555263 23.4945 0.887639 23.4945 1.3295V3.53491H25.4965C25.9384 3.53491 26.2805 3.66395 26.521 3.91812C26.7596 4.17425 26.8808 4.45579 26.8808 4.76275C26.8808 5.07166 26.7596 5.3493 26.521 5.59956C26.2805 5.8459 25.9384 5.96712 25.4965 5.96712H23.4945V12.0203C23.4945 12.3957 23.5199 12.7593 23.5727 13.1073C23.6235 13.4573 23.7388 13.7486 23.9168 13.9832C24.0927 14.214 24.3625 14.3274 24.7223 14.3274C24.8631 14.3274 25.0136 14.3078 25.1759 14.2648C25.3362 14.2179 25.4594 14.1788 25.5435 14.1475Z" fill="white"/>
<path d="M34.4389 3.27683C35.6316 3.27683 36.6463 3.53882 37.4811 4.0589C38.3199 4.58092 38.9612 5.30237 39.405 6.2252C39.8527 7.14804 40.0776 8.22532 40.0776 9.45511V15.2502C40.0776 15.6412 39.9525 15.9619 39.7022 16.2121C39.4558 16.4585 39.0941 16.5797 38.6151 16.5797C38.187 16.5797 37.835 16.4585 37.5593 16.2121C37.2876 15.9619 37.1527 15.6412 37.1527 15.2502V9.40037C37.1527 8.34263 36.8985 7.48432 36.3941 6.82739C35.8936 6.17046 35.1037 5.84199 34.0244 5.84199C33.6999 5.84199 33.3206 5.91629 32.8826 6.06097C32.4486 6.20761 32.0263 6.44223 31.6157 6.76483C31.209 7.08938 30.8669 7.50778 30.5912 8.02394C30.3194 8.53619 30.1845 9.16575 30.1845 9.91653V15.2502C30.1845 15.6412 30.0594 15.9619 29.8091 16.2121C29.5628 16.4585 29.2089 16.5797 28.7455 16.5797C28.2861 16.5797 27.9185 16.4585 27.6428 16.2121C27.3711 15.9619 27.2361 15.6412 27.2361 15.2502V1.22784C27.2361 0.836805 27.3926 0.535711 27.7054 0.320645C28.0221 0.107533 28.3623 0 28.7221 0C29.0974 0 29.4337 0.107533 29.7309 0.320645C30.032 0.535711 30.1845 0.836805 30.1845 1.22784V4.71583C30.8825 4.11755 31.6079 3.72847 32.3586 3.55056C33.1094 3.36873 33.8015 3.27683 34.4389 3.27683Z" fill="white"/>
<path d="M47.4008 3.2771C48.7655 3.2771 49.9621 3.56451 50.9905 4.13737C52.0169 4.71218 52.8127 5.51184 53.3758 6.53829C53.9389 7.56084 54.2204 8.75544 54.2204 10.1201C54.2048 11.4555 53.9095 12.6266 53.3367 13.6316C52.7619 14.6385 51.9681 15.4264 50.9514 15.9934C49.9347 16.5565 48.7499 16.838 47.4008 16.838C46.0713 16.838 44.8924 16.5565 43.8659 15.9934C42.8375 15.4264 42.0378 14.6385 41.465 13.6316C40.896 12.6266 40.6047 11.4555 40.5891 10.1201C40.5891 8.75544 40.8726 7.56084 41.4415 6.53829C42.0144 5.51184 42.8121 4.71218 43.8346 4.13737C44.8611 3.56451 46.0498 3.2771 47.4008 3.2771ZM47.4008 14.2729C48.5622 14.2729 49.4889 13.8897 50.1771 13.1232C50.8693 12.3529 51.2173 11.3519 51.2173 10.1201C51.2173 8.85906 50.8693 7.8326 50.1771 7.03881C49.4889 6.24111 48.5622 5.84226 47.4008 5.84226C46.259 5.84226 45.3362 6.24111 44.6323 7.03881C43.9324 7.8326 43.5844 8.85906 43.5844 10.1201C43.5844 11.3519 43.9324 12.3529 44.6323 13.1232C45.3362 13.8897 46.259 14.2729 47.4008 14.2729Z" fill="white"/>
<path d="M53.196 13.5299C53.0748 13.0509 53.1843 12.6677 53.5245 12.3803C53.8686 12.089 54.244 11.9423 54.6506 11.9423C54.9576 11.9423 55.2313 12.0342 55.4718 12.2161C55.7103 12.394 55.8902 12.6599 56.0114 13.0138C56.115 13.3227 56.336 13.5749 56.6762 13.7724C57.0203 13.9718 57.4152 14.1145 57.8649 14.2025C58.3185 14.2866 58.776 14.3276 59.2413 14.3276C60.1642 14.3276 60.9071 14.1614 61.4702 13.8271C62.0333 13.4947 62.3148 13.0724 62.3148 12.5602C62.3148 12.2004 62.1662 11.9345 61.869 11.7625C61.5719 11.5904 61.1769 11.4711 60.6881 11.4027C60.2033 11.3362 59.6871 11.2834 59.1397 11.2463C58.4202 11.1798 57.7124 11.0958 57.0203 10.996C56.3321 10.8924 55.7064 10.7184 55.1433 10.4721C54.5802 10.2218 54.1266 9.85423 53.7825 9.36935C53.4384 8.88057 53.2664 8.21777 53.2664 7.38292C53.2664 6.5598 53.5049 5.8403 53.9859 5.22443C54.4649 4.61051 55.1394 4.13346 56.0114 3.79326C56.8815 3.44915 57.8903 3.2771 59.038 3.2771C59.7047 3.2771 60.4222 3.34358 61.1887 3.47261C61.9551 3.59774 62.6667 3.85974 63.3237 4.25468C63.9845 4.64571 64.4694 5.2518 64.7783 6.06906C64.8976 6.41316 64.8878 6.71817 64.747 6.98407C64.6102 7.24997 64.4107 7.45135 64.1448 7.58625C63.8829 7.72312 63.615 7.78959 63.3393 7.78959C63.0304 7.78959 62.7782 7.73094 62.5807 7.60972C62.3872 7.49045 62.2229 7.28516 62.088 6.99189C61.9316 6.63801 61.6677 6.37406 61.2981 6.20201C60.9325 6.02995 60.5415 5.92438 60.1251 5.88136C59.7066 5.8403 59.3449 5.8188 59.038 5.8188C58.1816 5.8188 57.4934 5.96543 56.9733 6.25675C56.4513 6.54416 56.1913 6.92737 56.1913 7.40638C56.1913 7.81305 56.3262 8.09068 56.598 8.23536C56.8736 8.382 57.2471 8.46803 57.7163 8.49345C58.1855 8.52082 58.7115 8.56774 59.2961 8.63422C60.0097 8.72415 60.7155 8.81996 61.4155 8.92358C62.1193 9.02329 62.7606 9.1973 63.3393 9.44756C63.922 9.69391 64.3834 10.0615 64.7236 10.5503C65.0677 11.0351 65.2397 11.7058 65.2397 12.5602C65.2397 13.395 64.9856 14.138 64.4811 14.789C63.9747 15.4362 63.2728 15.9387 62.3774 16.2984C61.48 16.6582 60.434 16.838 59.2413 16.838C58.7095 16.838 58.1308 16.7989 57.5051 16.7207C56.8834 16.6425 56.2793 16.49 55.6908 16.2593C55.1003 16.0306 54.5842 15.7001 54.1423 15.2661C53.6985 14.8281 53.3837 14.2494 53.196 13.5299Z" fill="white"/>
<path d="M76.1022 3.53491C76.5441 3.53491 76.9253 3.72847 77.244 4.11364C77.5608 4.49489 77.6233 4.94262 77.4317 5.45878L69.9552 20.1459C69.7832 20.4685 69.5642 20.7246 69.2983 20.9123C69.0324 21.1 68.7548 21.1938 68.4693 21.1938C68.176 21.1938 67.9062 21.0941 67.656 20.8967C67.4096 20.6972 67.2415 20.445 67.1476 20.1381C67.0538 19.835 67.0929 19.5124 67.2649 19.1683L69.2123 15.3206L64.1602 5.56045C64.0096 5.21634 63.9881 4.89179 64.0976 4.58287C64.2071 4.27591 64.3889 4.02566 64.645 3.8321C64.8992 3.63462 65.1807 3.53491 65.4897 3.53491C65.7653 3.53491 66.0312 3.62094 66.2874 3.79299C66.5415 3.96505 66.7292 4.18793 66.8504 4.45774L70.7998 12.1689L74.7414 4.43428C74.8607 4.15861 75.0406 3.93963 75.2811 3.77735C75.5196 3.61703 75.7933 3.53491 76.1022 3.53491Z" fill="white"/>
<path d="M84.7095 3.2771C85.908 3.2771 86.9247 3.53909 87.7596 4.05916C88.5983 4.58119 89.2396 5.30264 89.6834 6.22547C90.1253 7.1483 90.3482 8.22559 90.3482 9.45538V15.2505C90.3482 15.6415 90.2191 15.9621 89.965 16.2124C89.7088 16.4587 89.3491 16.58 88.8857 16.58C88.4634 16.58 88.1134 16.4587 87.8378 16.2124C87.566 15.9621 87.4311 15.6415 87.4311 15.2505V9.40064C87.4311 8.3429 87.1769 7.48459 86.6725 6.82766C86.1661 6.17072 85.3684 5.84226 84.2794 5.84226C83.9509 5.84226 83.5599 5.93415 83.1063 6.11598C82.6566 6.2939 82.2148 6.56175 81.7768 6.9215C81.3428 7.27734 80.983 7.72703 80.6976 8.27447C80.416 8.82191 80.2752 9.47102 80.2752 10.2218V15.2739C80.2752 16.1459 79.806 16.58 78.8675 16.58C78.4237 16.58 78.062 16.4666 77.7805 16.2358C77.4989 16.0071 77.3582 15.6865 77.3582 15.2739V4.84122C77.3582 4.415 77.5067 4.09044 77.8039 3.87147C78.105 3.64858 78.4452 3.53518 78.8206 3.53518C79.1745 3.53518 79.5049 3.64858 79.8138 3.87147C80.1208 4.09044 80.2752 4.39936 80.2752 4.7943V4.97417C81.0104 4.28596 81.7709 3.83236 82.5589 3.61339C83.3448 3.3905 84.0624 3.2771 84.7095 3.2771Z" fill="white"/>
<path d="M100.315 7.04663C99.9238 6.58326 99.4624 6.25675 98.9306 6.06906C98.4027 5.88136 97.8845 5.78751 97.3742 5.78751C96.2422 5.78751 95.335 6.17855 94.6527 6.96061C93.9684 7.73876 93.6282 8.78281 93.6282 10.0967C93.6282 11.3597 93.9821 12.3764 94.6918 13.1467C95.3995 13.9131 96.3282 14.2963 97.4759 14.2963C97.9862 14.2963 98.5043 14.2084 99.0322 14.0304C99.564 13.8545 100.035 13.5592 100.448 13.1467C100.823 12.7713 101.193 12.5758 101.558 12.5602C101.928 12.5406 102.233 12.6423 102.473 12.8652C102.712 13.0841 102.843 13.3715 102.864 13.7254C102.89 14.0754 102.741 14.4293 102.419 14.789C101.75 15.5242 100.983 16.0521 100.119 16.3688C99.259 16.6816 98.3675 16.838 97.4446 16.838C96.0995 16.838 94.9186 16.5565 93.9019 15.9934C92.8852 15.4264 92.0914 14.6385 91.5244 13.6316C90.9614 12.6266 90.6798 11.4555 90.6798 10.1201C90.6798 8.73979 90.9555 7.53738 91.5088 6.51483C92.066 5.48838 92.8481 4.69263 93.855 4.12955C94.8658 3.56255 96.0389 3.2771 97.3742 3.2771C98.3127 3.2771 99.1847 3.42374 99.9942 3.71505C100.807 4.00833 101.554 4.55577 102.239 5.35738C102.546 5.71322 102.679 6.06124 102.638 6.40534C102.595 6.74945 102.444 7.0349 102.184 7.25779C101.928 7.47677 101.625 7.58234 101.277 7.57061C100.927 7.56084 100.606 7.38683 100.315 7.04663Z" fill="white"/>
</svg>
