<svg xmlns="http://www.w3.org/2000/svg" xmlns:xlink="http://www.w3.org/1999/xlink" width="500" zoomAndPan="magnify" viewBox="0 0 375 374.999991" height="500" preserveAspectRatio="xMidYMid meet" version="1.0"><defs><g/><clipPath id="6d4df1428a"><path d="M 267 165 L 289 165 L 289 187 L 267 187 Z M 267 165 " clip-rule="nonzero"/></clipPath><clipPath id="90bce3172a"><path d="M 263.527344 168.453125 L 278.398438 154.707031 L 298.761719 176.738281 L 283.890625 190.484375 Z M 263.527344 168.453125 " clip-rule="nonzero"/></clipPath><clipPath id="26a2315cd7"><path d="M 263.527344 168.453125 L 278.398438 154.707031 L 298.761719 176.738281 L 283.890625 190.484375 Z M 263.527344 168.453125 " clip-rule="nonzero"/></clipPath><clipPath id="bf502f3b6d"><path d="M 278 155 L 300 155 L 300 177 L 278 177 Z M 278 155 " clip-rule="nonzero"/></clipPath><clipPath id="65926dd144"><path d="M 274.199219 158.589844 L 289.070312 144.84375 L 309.429688 166.875 L 294.558594 180.621094 Z M 274.199219 158.589844 " clip-rule="nonzero"/></clipPath><clipPath id="b5b46f2c3f"><path d="M 274.199219 158.589844 L 289.070312 144.84375 L 309.429688 166.875 L 294.558594 180.621094 Z M 274.199219 158.589844 " clip-rule="nonzero"/></clipPath><clipPath id="9e510212cb"><path d="M 275 153 L 303 153 L 303 180 L 275 180 Z M 275 153 " clip-rule="nonzero"/></clipPath><clipPath id="9895ad43f0"><path d="M 270.390625 157.496094 L 289.113281 140.1875 L 315.078125 168.277344 L 296.351562 185.585938 Z M 270.390625 157.496094 " clip-rule="nonzero"/></clipPath><clipPath id="920e3f77dd"><path d="M 270.390625 157.496094 L 289.113281 140.1875 L 315.078125 168.277344 L 296.351562 185.585938 Z M 270.390625 157.496094 " clip-rule="nonzero"/></clipPath></defs><g clip-path="url(#6d4df1428a)"><g clip-path="url(#90bce3172a)"><g clip-path="url(#26a2315cd7)"><path fill="#18cb96" d="M 288.734375 165.996094 L 270.710938 165.191406 C 267.226562 165.039062 266.640625 171.820312 270.765625 171.933594 L 281.980469 172.234375 L 281.125 183.519531 C 280.863281 186.957031 287.566406 187.320312 287.757812 183.828125 Z M 288.734375 165.996094 " fill-opacity="1" fill-rule="nonzero"/></g></g></g><g clip-path="url(#bf502f3b6d)"><g clip-path="url(#65926dd144)"><g clip-path="url(#b5b46f2c3f)"><path fill="#18cb96" d="M 299.40625 156.132812 L 281.378906 155.332031 C 277.898438 155.175781 277.3125 161.957031 281.4375 162.070312 L 292.652344 162.375 L 291.792969 173.660156 C 291.535156 177.09375 298.234375 177.457031 298.425781 173.964844 Z M 299.40625 156.132812 " fill-opacity="1" fill-rule="nonzero"/></g></g></g><g fill="#ffffff" fill-opacity="1"><g transform="translate(75.782637, 201.61065)"><g><path d="M 0.65625 -6.03125 C 0.414062 -6.976562 0.632812 -7.738281 1.3125 -8.3125 C 1.988281 -8.882812 2.734375 -9.171875 3.546875 -9.171875 C 4.148438 -9.171875 4.6875 -8.992188 5.15625 -8.640625 C 5.632812 -8.285156 5.992188 -7.753906 6.234375 -7.046875 C 6.429688 -6.429688 6.867188 -5.929688 7.546875 -5.546875 C 8.222656 -5.160156 9.007812 -4.878906 9.90625 -4.703125 C 10.800781 -4.535156 11.703125 -4.453125 12.609375 -4.453125 C 14.429688 -4.453125 15.898438 -4.78125 17.015625 -5.4375 C 18.128906 -6.101562 18.6875 -6.941406 18.6875 -7.953125 C 18.6875 -8.660156 18.390625 -9.179688 17.796875 -9.515625 C 17.210938 -9.859375 16.4375 -10.097656 15.46875 -10.234375 C 14.507812 -10.367188 13.488281 -10.46875 12.40625 -10.53125 C 10.988281 -10.664062 9.597656 -10.832031 8.234375 -11.03125 C 6.867188 -11.238281 5.628906 -11.585938 4.515625 -12.078125 C 3.398438 -12.566406 2.503906 -13.289062 1.828125 -14.25 C 1.148438 -15.21875 0.8125 -16.53125 0.8125 -18.1875 C 0.8125 -19.800781 1.28125 -21.21875 2.21875 -22.4375 C 3.164062 -23.65625 4.5 -24.601562 6.21875 -25.28125 C 7.945312 -25.957031 9.941406 -26.296875 12.203125 -26.296875 C 13.523438 -26.296875 14.945312 -26.164062 16.46875 -25.90625 C 17.988281 -25.65625 19.394531 -25.140625 20.6875 -24.359375 C 21.988281 -23.585938 22.945312 -22.390625 23.5625 -20.765625 C 23.789062 -20.085938 23.769531 -19.488281 23.5 -18.96875 C 23.226562 -18.445312 22.832031 -18.050781 22.3125 -17.78125 C 21.789062 -17.507812 21.257812 -17.375 20.71875 -17.375 C 20.113281 -17.375 19.613281 -17.488281 19.21875 -17.71875 C 18.832031 -17.957031 18.503906 -18.367188 18.234375 -18.953125 C 17.929688 -19.660156 17.414062 -20.179688 16.6875 -20.515625 C 15.96875 -20.847656 15.191406 -21.054688 14.359375 -21.140625 C 13.535156 -21.234375 12.816406 -21.28125 12.203125 -21.28125 C 10.515625 -21.28125 9.15625 -20.988281 8.125 -20.40625 C 7.09375 -19.832031 6.578125 -19.078125 6.578125 -18.140625 C 6.578125 -17.328125 6.847656 -16.773438 7.390625 -16.484375 C 7.929688 -16.203125 8.664062 -16.035156 9.59375 -15.984375 C 10.53125 -15.929688 11.570312 -15.835938 12.71875 -15.703125 C 14.132812 -15.535156 15.535156 -15.347656 16.921875 -15.140625 C 18.304688 -14.941406 19.570312 -14.597656 20.71875 -14.109375 C 21.863281 -13.617188 22.773438 -12.890625 23.453125 -11.921875 C 24.128906 -10.960938 24.46875 -9.640625 24.46875 -7.953125 C 24.46875 -6.296875 23.96875 -4.828125 22.96875 -3.546875 C 21.976562 -2.265625 20.59375 -1.269531 18.8125 -0.5625 C 17.039062 0.144531 14.972656 0.5 12.609375 0.5 C 11.566406 0.5 10.425781 0.421875 9.1875 0.265625 C 7.957031 0.117188 6.757812 -0.175781 5.59375 -0.625 C 4.425781 -1.082031 3.40625 -1.742188 2.53125 -2.609375 C 1.65625 -3.472656 1.03125 -4.613281 0.65625 -6.03125 Z M 0.65625 -6.03125 "/></g></g></g><g fill="#ffffff" fill-opacity="1"><g transform="translate(100.960593, 201.61065)"><g><path d="M 23.609375 -25.78125 C 24.484375 -25.78125 25.234375 -25.398438 25.859375 -24.640625 C 26.484375 -23.878906 26.609375 -22.992188 26.234375 -21.984375 L 11.453125 7.046875 C 11.109375 7.679688 10.675781 8.1875 10.15625 8.5625 C 9.632812 8.9375 9.085938 9.125 8.515625 9.125 C 7.941406 9.125 7.410156 8.925781 6.921875 8.53125 C 6.429688 8.144531 6.09375 7.644531 5.90625 7.03125 C 5.71875 6.425781 5.789062 5.785156 6.125 5.109375 L 9.984375 -2.484375 L 0 -21.78125 C -0.300781 -22.457031 -0.34375 -23.097656 -0.125 -23.703125 C 0.09375 -24.316406 0.453125 -24.816406 0.953125 -25.203125 C 1.460938 -25.585938 2.023438 -25.78125 2.640625 -25.78125 C 3.171875 -25.78125 3.691406 -25.609375 4.203125 -25.265625 C 4.710938 -24.929688 5.082031 -24.492188 5.3125 -23.953125 L 13.125 -8.71875 L 20.921875 -24.015625 C 21.160156 -24.554688 21.515625 -24.984375 21.984375 -25.296875 C 22.453125 -25.617188 22.992188 -25.78125 23.609375 -25.78125 Z M 23.609375 -25.78125 "/></g></g></g><g fill="#ffffff" fill-opacity="1"><g transform="translate(127.354391, 201.61065)"><g><path d="M 17.078125 -26.296875 C 19.429688 -26.296875 21.4375 -25.78125 23.09375 -24.75 C 24.75 -23.71875 26.015625 -22.289062 26.890625 -20.46875 C 27.773438 -18.644531 28.21875 -16.515625 28.21875 -14.078125 L 28.21875 -2.640625 C 28.21875 -1.859375 27.960938 -1.222656 27.453125 -0.734375 C 26.953125 -0.242188 26.242188 0 25.328125 0 C 24.484375 0 23.789062 -0.242188 23.25 -0.734375 C 22.707031 -1.222656 22.4375 -1.859375 22.4375 -2.640625 L 22.4375 -14.1875 C 22.4375 -16.28125 21.9375 -17.972656 20.9375 -19.265625 C 19.945312 -20.566406 18.367188 -21.21875 16.203125 -21.21875 C 15.566406 -21.21875 14.800781 -21.039062 13.90625 -20.6875 C 13.007812 -20.332031 12.128906 -19.800781 11.265625 -19.09375 C 10.410156 -18.382812 9.703125 -17.488281 9.140625 -16.40625 C 8.585938 -15.332031 8.3125 -14.050781 8.3125 -12.5625 L 8.3125 -2.578125 C 8.3125 -0.859375 7.378906 0 5.515625 0 C 4.640625 0 3.921875 -0.226562 3.359375 -0.6875 C 2.804688 -1.144531 2.53125 -1.773438 2.53125 -2.578125 L 2.53125 -23.203125 C 2.53125 -24.046875 2.828125 -24.6875 3.421875 -25.125 C 4.015625 -25.5625 4.679688 -25.78125 5.421875 -25.78125 C 6.128906 -25.78125 6.785156 -25.5625 7.390625 -25.125 C 8.003906 -24.6875 8.3125 -24.078125 8.3125 -23.296875 L 8.3125 -22.953125 C 9.757812 -24.296875 11.257812 -25.1875 12.8125 -25.625 C 14.363281 -26.070312 15.785156 -26.296875 17.078125 -26.296875 Z M 17.078125 -26.296875 "/></g></g></g><g fill="#ffffff" fill-opacity="1"><g transform="translate(158.104968, 201.61065)"><g><path d="M 23.5625 -25.78125 C 24.4375 -25.78125 25.132812 -25.535156 25.65625 -25.046875 C 26.175781 -24.554688 26.4375 -23.925781 26.4375 -23.15625 L 26.4375 -2.640625 C 26.4375 -1.859375 26.175781 -1.222656 25.65625 -0.734375 C 25.132812 -0.242188 24.4375 0 23.5625 0 C 22.707031 0 22.046875 -0.191406 21.578125 -0.578125 C 21.109375 -0.972656 20.820312 -1.488281 20.71875 -2.125 C 19.570312 -1.21875 18.285156 -0.550781 16.859375 -0.125 C 15.441406 0.289062 14.09375 0.5 12.8125 0.5 C 10.382812 0.5 8.28125 -0.0546875 6.5 -1.171875 C 4.726562 -2.285156 3.367188 -3.851562 2.421875 -5.875 C 1.484375 -7.90625 1.015625 -10.269531 1.015625 -12.96875 C 1.015625 -15.601562 1.535156 -17.914062 2.578125 -19.90625 C 3.628906 -21.894531 5.09375 -23.457031 6.96875 -24.59375 C 8.84375 -25.726562 11.007812 -26.296875 13.46875 -26.296875 C 14.550781 -26.296875 15.75 -26.09375 17.0625 -25.6875 C 18.382812 -25.28125 19.601562 -24.640625 20.71875 -23.765625 C 20.851562 -24.367188 21.15625 -24.851562 21.625 -25.21875 C 22.101562 -25.59375 22.75 -25.78125 23.5625 -25.78125 Z M 13.421875 -4.609375 C 14.910156 -4.609375 16.347656 -4.9375 17.734375 -5.59375 C 19.117188 -6.25 20.097656 -7.222656 20.671875 -8.515625 L 20.671875 -17.28125 C 20.023438 -18.519531 19.0625 -19.476562 17.78125 -20.15625 C 16.5 -20.832031 15.195312 -21.171875 13.875 -21.171875 C 11.75 -21.171875 10.035156 -20.394531 8.734375 -18.84375 C 7.429688 -17.289062 6.78125 -15.316406 6.78125 -12.921875 C 6.78125 -10.421875 7.390625 -8.410156 8.609375 -6.890625 C 9.828125 -5.367188 11.429688 -4.609375 13.421875 -4.609375 Z M 13.421875 -4.609375 "/></g></g></g><g fill="#ffffff" fill-opacity="1"><g transform="translate(187.386397, 201.61065)"><g><path d="M 15.5 -26.296875 C 18 -26.296875 20.1875 -25.742188 22.0625 -24.640625 C 23.9375 -23.546875 25.390625 -22.007812 26.421875 -20.03125 C 27.453125 -18.0625 27.96875 -15.773438 27.96875 -13.171875 C 27.96875 -10.472656 27.453125 -8.09375 26.421875 -6.03125 C 25.390625 -3.96875 23.960938 -2.363281 22.140625 -1.21875 C 20.316406 -0.0703125 18.171875 0.5 15.703125 0.5 C 14.554688 0.5 13.304688 0.300781 11.953125 -0.09375 C 10.597656 -0.5 9.363281 -1.078125 8.25 -1.828125 L 8.25 5.921875 C 8.25 6.765625 7.953125 7.40625 7.359375 7.84375 C 6.773438 8.289062 6.128906 8.515625 5.421875 8.515625 C 4.679688 8.515625 4.015625 8.289062 3.421875 7.84375 C 2.828125 7.40625 2.53125 6.765625 2.53125 5.921875 L 2.53125 -23.203125 C 2.53125 -24.015625 2.789062 -24.644531 3.3125 -25.09375 C 3.84375 -25.550781 4.5625 -25.78125 5.46875 -25.78125 C 6.988281 -25.78125 7.882812 -25.191406 8.15625 -24.015625 C 9.332031 -24.859375 10.5625 -25.445312 11.84375 -25.78125 C 13.132812 -26.125 14.351562 -26.296875 15.5 -26.296875 Z M 15.546875 -4.609375 C 17.546875 -4.609375 19.148438 -5.394531 20.359375 -6.96875 C 21.578125 -8.539062 22.1875 -10.59375 22.1875 -13.125 C 22.1875 -15.519531 21.535156 -17.457031 20.234375 -18.9375 C 18.929688 -20.425781 17.21875 -21.171875 15.09375 -21.171875 C 13.738281 -21.171875 12.421875 -20.820312 11.140625 -20.125 C 9.859375 -19.4375 8.894531 -18.453125 8.25 -17.171875 L 8.25 -8.765625 C 8.789062 -7.441406 9.753906 -6.414062 11.140625 -5.6875 C 12.523438 -4.96875 13.992188 -4.609375 15.546875 -4.609375 Z M 15.546875 -4.609375 "/></g></g></g><g fill="#ffffff" fill-opacity="1"><g transform="translate(216.870472, 201.61065)"><g><path d="M 0.65625 -6.03125 C 0.414062 -6.976562 0.632812 -7.738281 1.3125 -8.3125 C 1.988281 -8.882812 2.734375 -9.171875 3.546875 -9.171875 C 4.148438 -9.171875 4.6875 -8.992188 5.15625 -8.640625 C 5.632812 -8.285156 5.992188 -7.753906 6.234375 -7.046875 C 6.429688 -6.429688 6.867188 -5.929688 7.546875 -5.546875 C 8.222656 -5.160156 9.007812 -4.878906 9.90625 -4.703125 C 10.800781 -4.535156 11.703125 -4.453125 12.609375 -4.453125 C 14.429688 -4.453125 15.898438 -4.78125 17.015625 -5.4375 C 18.128906 -6.101562 18.6875 -6.941406 18.6875 -7.953125 C 18.6875 -8.660156 18.390625 -9.179688 17.796875 -9.515625 C 17.210938 -9.859375 16.4375 -10.097656 15.46875 -10.234375 C 14.507812 -10.367188 13.488281 -10.46875 12.40625 -10.53125 C 10.988281 -10.664062 9.597656 -10.832031 8.234375 -11.03125 C 6.867188 -11.238281 5.628906 -11.585938 4.515625 -12.078125 C 3.398438 -12.566406 2.503906 -13.289062 1.828125 -14.25 C 1.148438 -15.21875 0.8125 -16.53125 0.8125 -18.1875 C 0.8125 -19.800781 1.28125 -21.21875 2.21875 -22.4375 C 3.164062 -23.65625 4.5 -24.601562 6.21875 -25.28125 C 7.945312 -25.957031 9.941406 -26.296875 12.203125 -26.296875 C 13.523438 -26.296875 14.945312 -26.164062 16.46875 -25.90625 C 17.988281 -25.65625 19.394531 -25.140625 20.6875 -24.359375 C 21.988281 -23.585938 22.945312 -22.390625 23.5625 -20.765625 C 23.789062 -20.085938 23.769531 -19.488281 23.5 -18.96875 C 23.226562 -18.445312 22.832031 -18.050781 22.3125 -17.78125 C 21.789062 -17.507812 21.257812 -17.375 20.71875 -17.375 C 20.113281 -17.375 19.613281 -17.488281 19.21875 -17.71875 C 18.832031 -17.957031 18.503906 -18.367188 18.234375 -18.953125 C 17.929688 -19.660156 17.414062 -20.179688 16.6875 -20.515625 C 15.96875 -20.847656 15.191406 -21.054688 14.359375 -21.140625 C 13.535156 -21.234375 12.816406 -21.28125 12.203125 -21.28125 C 10.515625 -21.28125 9.15625 -20.988281 8.125 -20.40625 C 7.09375 -19.832031 6.578125 -19.078125 6.578125 -18.140625 C 6.578125 -17.328125 6.847656 -16.773438 7.390625 -16.484375 C 7.929688 -16.203125 8.664062 -16.035156 9.59375 -15.984375 C 10.53125 -15.929688 11.570312 -15.835938 12.71875 -15.703125 C 14.132812 -15.535156 15.535156 -15.347656 16.921875 -15.140625 C 18.304688 -14.941406 19.570312 -14.597656 20.71875 -14.109375 C 21.863281 -13.617188 22.773438 -12.890625 23.453125 -11.921875 C 24.128906 -10.960938 24.46875 -9.640625 24.46875 -7.953125 C 24.46875 -6.296875 23.96875 -4.828125 22.96875 -3.546875 C 21.976562 -2.265625 20.59375 -1.269531 18.8125 -0.5625 C 17.039062 0.144531 14.972656 0.5 12.609375 0.5 C 11.566406 0.5 10.425781 0.421875 9.1875 0.265625 C 7.957031 0.117188 6.757812 -0.175781 5.59375 -0.625 C 4.425781 -1.082031 3.40625 -1.742188 2.53125 -2.609375 C 1.65625 -3.472656 1.03125 -4.613281 0.65625 -6.03125 Z M 0.65625 -6.03125 "/></g></g></g><g fill="#ffffff" fill-opacity="1"><g transform="translate(242.048434, 201.61065)"><g><path d="M 14.484375 -4.515625 C 15.460938 -4.515625 16.425781 -4.644531 17.375 -4.90625 C 18.320312 -5.175781 19.203125 -5.632812 20.015625 -6.28125 C 20.785156 -6.988281 21.539062 -7.316406 22.28125 -7.265625 C 23.03125 -7.210938 23.648438 -6.941406 24.140625 -6.453125 C 24.628906 -5.960938 24.875 -5.351562 24.875 -4.625 C 24.875 -3.90625 24.519531 -3.207031 23.8125 -2.53125 C 22.625 -1.382812 21.21875 -0.582031 19.59375 -0.125 C 17.976562 0.332031 16.328125 0.539062 14.640625 0.5 C 12.003906 0.5 9.679688 -0.0351562 7.671875 -1.109375 C 5.660156 -2.191406 4.085938 -3.695312 2.953125 -5.625 C 1.828125 -7.550781 1.265625 -9.78125 1.265625 -12.3125 C 1.265625 -15.082031 1.804688 -17.515625 2.890625 -19.609375 C 3.972656 -21.703125 5.5 -23.335938 7.46875 -24.515625 C 9.445312 -25.703125 11.785156 -26.296875 14.484375 -26.296875 C 17.191406 -26.296875 19.488281 -25.742188 21.375 -24.640625 C 23.269531 -23.546875 24.710938 -22.007812 25.703125 -20.03125 C 26.703125 -18.0625 27.203125 -15.757812 27.203125 -13.125 C 27.203125 -12.28125 27.03125 -11.5625 26.6875 -10.96875 C 26.351562 -10.375 25.460938 -10.078125 24.015625 -10.078125 L 7.140625 -10.078125 C 7.617188 -8.421875 8.515625 -7.078125 9.828125 -6.046875 C 11.140625 -5.023438 12.691406 -4.515625 14.484375 -4.515625 Z M 14.53125 -21.28125 C 12.570312 -21.28125 10.9375 -20.660156 9.625 -19.421875 C 8.3125 -18.191406 7.46875 -16.582031 7.09375 -14.59375 L 21.828125 -14.59375 C 21.660156 -16.582031 21.003906 -18.191406 19.859375 -19.421875 C 18.710938 -20.660156 16.9375 -21.28125 14.53125 -21.28125 Z M 14.53125 -21.28125 "/></g></g></g><g fill="#ffffff" fill-opacity="1"><g transform="translate(73.696047, 228.585288)"><g><path d="M 5.328125 -5.03125 C 5.898438 -4.925781 6.375 -4.644531 6.75 -4.1875 C 7.132812 -3.738281 7.328125 -3.210938 7.328125 -2.609375 C 7.328125 -2.109375 7.207031 -1.660156 6.96875 -1.265625 C 6.738281 -0.867188 6.390625 -0.554688 5.921875 -0.328125 C 5.453125 -0.109375 4.890625 0 4.234375 0 L 1.140625 0 L 1.140625 -9.734375 L 4.171875 -9.734375 C 5.140625 -9.734375 5.867188 -9.507812 6.359375 -9.0625 C 6.859375 -8.613281 7.109375 -8.03125 7.109375 -7.3125 C 7.109375 -6.695312 6.941406 -6.195312 6.609375 -5.8125 C 6.273438 -5.425781 5.847656 -5.164062 5.328125 -5.03125 Z M 1.765625 -5.3125 L 4.203125 -5.3125 C 4.929688 -5.3125 5.488281 -5.484375 5.875 -5.828125 C 6.269531 -6.171875 6.46875 -6.648438 6.46875 -7.265625 C 6.46875 -7.859375 6.273438 -8.320312 5.890625 -8.65625 C 5.503906 -9 4.914062 -9.171875 4.125 -9.171875 L 1.765625 -9.171875 Z M 4.1875 -0.546875 C 4.96875 -0.546875 5.582031 -0.726562 6.03125 -1.09375 C 6.476562 -1.46875 6.703125 -1.984375 6.703125 -2.640625 C 6.703125 -3.296875 6.472656 -3.8125 6.015625 -4.1875 C 5.554688 -4.570312 4.929688 -4.765625 4.140625 -4.765625 L 1.765625 -4.765625 L 1.765625 -0.546875 Z M 4.1875 -0.546875 "/></g></g></g><g fill="#ffffff" fill-opacity="1"><g transform="translate(81.184878, 228.585288)"><g><path d="M 1.765625 -5.96875 C 1.941406 -6.53125 2.265625 -6.953125 2.734375 -7.234375 C 3.210938 -7.523438 3.816406 -7.671875 4.546875 -7.671875 L 4.546875 -7.03125 L 4.34375 -7.03125 C 3.601562 -7.03125 2.988281 -6.816406 2.5 -6.390625 C 2.007812 -5.972656 1.765625 -5.289062 1.765625 -4.34375 L 1.765625 0 L 1.140625 0 L 1.140625 -7.53125 L 1.765625 -7.53125 Z M 1.765625 -5.96875 "/></g></g></g><g fill="#ffffff" fill-opacity="1"><g transform="translate(85.503594, 228.585288)"><g><path d="M 1.453125 -9.203125 C 1.304688 -9.203125 1.179688 -9.25 1.078125 -9.34375 C 0.972656 -9.445312 0.921875 -9.582031 0.921875 -9.75 C 0.921875 -9.90625 0.972656 -10.03125 1.078125 -10.125 C 1.179688 -10.226562 1.304688 -10.28125 1.453125 -10.28125 C 1.597656 -10.28125 1.722656 -10.226562 1.828125 -10.125 C 1.929688 -10.03125 1.984375 -9.90625 1.984375 -9.75 C 1.984375 -9.582031 1.929688 -9.445312 1.828125 -9.34375 C 1.722656 -9.25 1.597656 -9.203125 1.453125 -9.203125 Z M 1.765625 -7.53125 L 1.765625 0 L 1.140625 0 L 1.140625 -7.53125 Z M 1.765625 -7.53125 "/></g></g></g><g fill="#ffffff" fill-opacity="1"><g transform="translate(87.884243, 228.585288)"><g><path d="M 0.75 -3.765625 C 0.75 -4.546875 0.898438 -5.226562 1.203125 -5.8125 C 1.515625 -6.394531 1.945312 -6.84375 2.5 -7.15625 C 3.050781 -7.46875 3.675781 -7.625 4.375 -7.625 C 5.144531 -7.625 5.8125 -7.429688 6.375 -7.046875 C 6.9375 -6.660156 7.332031 -6.164062 7.5625 -5.5625 L 7.5625 -10.25 L 8.1875 -10.25 L 8.1875 0 L 7.5625 0 L 7.5625 -2 C 7.34375 -1.375 6.957031 -0.863281 6.40625 -0.46875 C 5.851562 -0.0820312 5.175781 0.109375 4.375 0.109375 C 3.675781 0.109375 3.050781 -0.046875 2.5 -0.359375 C 1.945312 -0.679688 1.515625 -1.132812 1.203125 -1.71875 C 0.898438 -2.3125 0.75 -2.992188 0.75 -3.765625 Z M 7.5625 -3.765625 C 7.5625 -4.421875 7.425781 -5 7.15625 -5.5 C 6.882812 -6.007812 6.507812 -6.398438 6.03125 -6.671875 C 5.5625 -6.941406 5.039062 -7.078125 4.46875 -7.078125 C 3.851562 -7.078125 3.3125 -6.945312 2.84375 -6.6875 C 2.382812 -6.425781 2.023438 -6.046875 1.765625 -5.546875 C 1.515625 -5.046875 1.390625 -4.453125 1.390625 -3.765625 C 1.390625 -3.085938 1.515625 -2.5 1.765625 -2 C 2.023438 -1.5 2.390625 -1.113281 2.859375 -0.84375 C 3.328125 -0.570312 3.863281 -0.4375 4.46875 -0.4375 C 5.039062 -0.4375 5.566406 -0.570312 6.046875 -0.84375 C 6.523438 -1.125 6.894531 -1.515625 7.15625 -2.015625 C 7.425781 -2.515625 7.5625 -3.097656 7.5625 -3.765625 Z M 7.5625 -3.765625 "/></g></g></g><g fill="#ffffff" fill-opacity="1"><g transform="translate(96.674334, 228.585288)"><g><path d="M 4.375 -7.625 C 5.175781 -7.625 5.851562 -7.429688 6.40625 -7.046875 C 6.957031 -6.660156 7.34375 -6.171875 7.5625 -5.578125 L 7.5625 -7.53125 L 8.1875 -7.53125 L 8.1875 0.234375 C 8.1875 0.929688 8.035156 1.539062 7.734375 2.0625 C 7.429688 2.582031 7.019531 2.984375 6.5 3.265625 C 5.976562 3.546875 5.398438 3.6875 4.765625 3.6875 C 3.828125 3.6875 3.046875 3.457031 2.421875 3 C 1.804688 2.550781 1.398438 1.941406 1.203125 1.171875 L 1.828125 1.171875 C 2.015625 1.773438 2.359375 2.253906 2.859375 2.609375 C 3.367188 2.960938 4.003906 3.140625 4.765625 3.140625 C 5.296875 3.140625 5.769531 3.019531 6.1875 2.78125 C 6.613281 2.550781 6.945312 2.21875 7.1875 1.78125 C 7.4375 1.34375 7.5625 0.828125 7.5625 0.234375 L 7.5625 -1.96875 C 7.34375 -1.363281 6.953125 -0.863281 6.390625 -0.46875 C 5.835938 -0.0820312 5.164062 0.109375 4.375 0.109375 C 3.675781 0.109375 3.050781 -0.046875 2.5 -0.359375 C 1.945312 -0.679688 1.515625 -1.132812 1.203125 -1.71875 C 0.898438 -2.3125 0.75 -2.992188 0.75 -3.765625 C 0.75 -4.546875 0.898438 -5.226562 1.203125 -5.8125 C 1.515625 -6.394531 1.945312 -6.84375 2.5 -7.15625 C 3.050781 -7.46875 3.675781 -7.625 4.375 -7.625 Z M 7.5625 -3.765625 C 7.5625 -4.421875 7.425781 -5 7.15625 -5.5 C 6.882812 -6.007812 6.507812 -6.398438 6.03125 -6.671875 C 5.5625 -6.941406 5.039062 -7.078125 4.46875 -7.078125 C 3.851562 -7.078125 3.3125 -6.945312 2.84375 -6.6875 C 2.382812 -6.425781 2.023438 -6.046875 1.765625 -5.546875 C 1.515625 -5.046875 1.390625 -4.453125 1.390625 -3.765625 C 1.390625 -3.085938 1.515625 -2.5 1.765625 -2 C 2.023438 -1.5 2.390625 -1.113281 2.859375 -0.84375 C 3.328125 -0.570312 3.863281 -0.4375 4.46875 -0.4375 C 5.039062 -0.4375 5.566406 -0.570312 6.046875 -0.84375 C 6.523438 -1.125 6.894531 -1.515625 7.15625 -2.015625 C 7.425781 -2.515625 7.5625 -3.097656 7.5625 -3.765625 Z M 7.5625 -3.765625 "/></g></g></g><g fill="#ffffff" fill-opacity="1"><g transform="translate(105.464426, 228.585288)"><g><path d="M 1.453125 -9.203125 C 1.304688 -9.203125 1.179688 -9.25 1.078125 -9.34375 C 0.972656 -9.445312 0.921875 -9.582031 0.921875 -9.75 C 0.921875 -9.90625 0.972656 -10.03125 1.078125 -10.125 C 1.179688 -10.226562 1.304688 -10.28125 1.453125 -10.28125 C 1.597656 -10.28125 1.722656 -10.226562 1.828125 -10.125 C 1.929688 -10.03125 1.984375 -9.90625 1.984375 -9.75 C 1.984375 -9.582031 1.929688 -9.445312 1.828125 -9.34375 C 1.722656 -9.25 1.597656 -9.203125 1.453125 -9.203125 Z M 1.765625 -7.53125 L 1.765625 0 L 1.140625 0 L 1.140625 -7.53125 Z M 1.765625 -7.53125 "/></g></g></g><g fill="#ffffff" fill-opacity="1"><g transform="translate(107.845074, 228.585288)"><g><path d="M 4.53125 -7.671875 C 5.425781 -7.671875 6.15625 -7.394531 6.71875 -6.84375 C 7.28125 -6.300781 7.5625 -5.488281 7.5625 -4.40625 L 7.5625 0 L 6.953125 0 L 6.953125 -4.359375 C 6.953125 -5.253906 6.722656 -5.941406 6.265625 -6.421875 C 5.816406 -6.898438 5.207031 -7.140625 4.4375 -7.140625 C 3.625 -7.140625 2.972656 -6.878906 2.484375 -6.359375 C 2.003906 -5.835938 1.765625 -5.070312 1.765625 -4.0625 L 1.765625 0 L 1.140625 0 L 1.140625 -7.53125 L 1.765625 -7.53125 L 1.765625 -5.9375 C 1.972656 -6.5 2.320312 -6.925781 2.8125 -7.21875 C 3.3125 -7.519531 3.882812 -7.671875 4.53125 -7.671875 Z M 4.53125 -7.671875 "/></g></g></g><g fill="#ffffff" fill-opacity="1"><g transform="translate(115.942998, 228.585288)"><g><path d="M 4.375 -7.625 C 5.175781 -7.625 5.851562 -7.429688 6.40625 -7.046875 C 6.957031 -6.660156 7.34375 -6.171875 7.5625 -5.578125 L 7.5625 -7.53125 L 8.1875 -7.53125 L 8.1875 0.234375 C 8.1875 0.929688 8.035156 1.539062 7.734375 2.0625 C 7.429688 2.582031 7.019531 2.984375 6.5 3.265625 C 5.976562 3.546875 5.398438 3.6875 4.765625 3.6875 C 3.828125 3.6875 3.046875 3.457031 2.421875 3 C 1.804688 2.550781 1.398438 1.941406 1.203125 1.171875 L 1.828125 1.171875 C 2.015625 1.773438 2.359375 2.253906 2.859375 2.609375 C 3.367188 2.960938 4.003906 3.140625 4.765625 3.140625 C 5.296875 3.140625 5.769531 3.019531 6.1875 2.78125 C 6.613281 2.550781 6.945312 2.21875 7.1875 1.78125 C 7.4375 1.34375 7.5625 0.828125 7.5625 0.234375 L 7.5625 -1.96875 C 7.34375 -1.363281 6.953125 -0.863281 6.390625 -0.46875 C 5.835938 -0.0820312 5.164062 0.109375 4.375 0.109375 C 3.675781 0.109375 3.050781 -0.046875 2.5 -0.359375 C 1.945312 -0.679688 1.515625 -1.132812 1.203125 -1.71875 C 0.898438 -2.3125 0.75 -2.992188 0.75 -3.765625 C 0.75 -4.546875 0.898438 -5.226562 1.203125 -5.8125 C 1.515625 -6.394531 1.945312 -6.84375 2.5 -7.15625 C 3.050781 -7.46875 3.675781 -7.625 4.375 -7.625 Z M 7.5625 -3.765625 C 7.5625 -4.421875 7.425781 -5 7.15625 -5.5 C 6.882812 -6.007812 6.507812 -6.398438 6.03125 -6.671875 C 5.5625 -6.941406 5.039062 -7.078125 4.46875 -7.078125 C 3.851562 -7.078125 3.3125 -6.945312 2.84375 -6.6875 C 2.382812 -6.425781 2.023438 -6.046875 1.765625 -5.546875 C 1.515625 -5.046875 1.390625 -4.453125 1.390625 -3.765625 C 1.390625 -3.085938 1.515625 -2.5 1.765625 -2 C 2.023438 -1.5 2.390625 -1.113281 2.859375 -0.84375 C 3.328125 -0.570312 3.863281 -0.4375 4.46875 -0.4375 C 5.039062 -0.4375 5.566406 -0.570312 6.046875 -0.84375 C 6.523438 -1.125 6.894531 -1.515625 7.15625 -2.015625 C 7.425781 -2.515625 7.5625 -3.097656 7.5625 -3.765625 Z M 7.5625 -3.765625 "/></g></g></g><g fill="#ffffff" fill-opacity="1"><g transform="translate(124.73309, 228.585288)"><g/></g></g><g fill="#ffffff" fill-opacity="1"><g transform="translate(128.110459, 228.585288)"><g><path d="M 6.515625 -9.734375 L 6.515625 -9.203125 L 3.734375 -9.203125 L 3.734375 0 L 3.125 0 L 3.125 -9.203125 L 0.34375 -9.203125 L 0.34375 -9.734375 Z M 6.515625 -9.734375 "/></g></g></g><g fill="#ffffff" fill-opacity="1"><g transform="translate(134.436446, 228.585288)"><g><path d="M 7.90625 -4.265625 C 7.90625 -3.929688 7.898438 -3.679688 7.890625 -3.515625 L 1.390625 -3.515625 C 1.398438 -2.847656 1.546875 -2.28125 1.828125 -1.8125 C 2.109375 -1.351562 2.472656 -1.003906 2.921875 -0.765625 C 3.378906 -0.535156 3.875 -0.421875 4.40625 -0.421875 C 5.144531 -0.421875 5.765625 -0.601562 6.265625 -0.96875 C 6.765625 -1.34375 7.078125 -1.84375 7.203125 -2.46875 L 7.859375 -2.46875 C 7.710938 -1.695312 7.332031 -1.070312 6.71875 -0.59375 C 6.113281 -0.125 5.34375 0.109375 4.40625 0.109375 C 3.707031 0.109375 3.078125 -0.046875 2.515625 -0.359375 C 1.960938 -0.671875 1.53125 -1.117188 1.21875 -1.703125 C 0.90625 -2.296875 0.75 -2.984375 0.75 -3.765625 C 0.75 -4.554688 0.898438 -5.238281 1.203125 -5.8125 C 1.515625 -6.394531 1.945312 -6.84375 2.5 -7.15625 C 3.0625 -7.46875 3.695312 -7.625 4.40625 -7.625 C 5.125 -7.625 5.75 -7.46875 6.28125 -7.15625 C 6.8125 -6.84375 7.210938 -6.429688 7.484375 -5.921875 C 7.765625 -5.410156 7.90625 -4.859375 7.90625 -4.265625 Z M 7.296875 -4.03125 C 7.316406 -4.695312 7.195312 -5.257812 6.9375 -5.71875 C 6.675781 -6.1875 6.316406 -6.53125 5.859375 -6.75 C 5.410156 -6.976562 4.921875 -7.09375 4.390625 -7.09375 C 3.867188 -7.09375 3.382812 -6.976562 2.9375 -6.75 C 2.488281 -6.53125 2.117188 -6.1875 1.828125 -5.71875 C 1.546875 -5.257812 1.398438 -4.695312 1.390625 -4.03125 Z M 7.296875 -4.03125 "/></g></g></g><g fill="#ffffff" fill-opacity="1"><g transform="translate(142.562063, 228.585288)"><g><path d="M 0.75 -3.765625 C 0.75 -4.554688 0.898438 -5.238281 1.203125 -5.8125 C 1.515625 -6.394531 1.945312 -6.84375 2.5 -7.15625 C 3.050781 -7.46875 3.679688 -7.625 4.390625 -7.625 C 5.335938 -7.625 6.113281 -7.382812 6.71875 -6.90625 C 7.320312 -6.4375 7.695312 -5.804688 7.84375 -5.015625 L 7.1875 -5.015625 C 7.070312 -5.660156 6.757812 -6.164062 6.25 -6.53125 C 5.75 -6.90625 5.128906 -7.09375 4.390625 -7.09375 C 3.835938 -7.09375 3.332031 -6.96875 2.875 -6.71875 C 2.425781 -6.476562 2.066406 -6.101562 1.796875 -5.59375 C 1.523438 -5.09375 1.390625 -4.484375 1.390625 -3.765625 C 1.390625 -3.035156 1.523438 -2.421875 1.796875 -1.921875 C 2.066406 -1.421875 2.425781 -1.046875 2.875 -0.796875 C 3.332031 -0.546875 3.835938 -0.421875 4.390625 -0.421875 C 5.128906 -0.421875 5.75 -0.601562 6.25 -0.96875 C 6.757812 -1.34375 7.070312 -1.859375 7.1875 -2.515625 L 7.84375 -2.515625 C 7.695312 -1.722656 7.316406 -1.085938 6.703125 -0.609375 C 6.097656 -0.128906 5.328125 0.109375 4.390625 0.109375 C 3.679688 0.109375 3.050781 -0.046875 2.5 -0.359375 C 1.945312 -0.671875 1.515625 -1.117188 1.203125 -1.703125 C 0.898438 -2.296875 0.75 -2.984375 0.75 -3.765625 Z M 0.75 -3.765625 "/></g></g></g><g fill="#ffffff" fill-opacity="1"><g transform="translate(150.632312, 228.585288)"><g><path d="M 4.546875 -7.671875 C 5.429688 -7.671875 6.15625 -7.394531 6.71875 -6.84375 C 7.28125 -6.300781 7.5625 -5.488281 7.5625 -4.40625 L 7.5625 0 L 6.953125 0 L 6.953125 -4.359375 C 6.953125 -5.253906 6.722656 -5.941406 6.265625 -6.421875 C 5.816406 -6.898438 5.207031 -7.140625 4.4375 -7.140625 C 3.625 -7.140625 2.972656 -6.878906 2.484375 -6.359375 C 2.003906 -5.835938 1.765625 -5.070312 1.765625 -4.0625 L 1.765625 0 L 1.140625 0 L 1.140625 -10.25 L 1.765625 -10.25 L 1.765625 -5.9375 C 1.972656 -6.5 2.328125 -6.925781 2.828125 -7.21875 C 3.328125 -7.519531 3.898438 -7.671875 4.546875 -7.671875 Z M 4.546875 -7.671875 "/></g></g></g><g fill="#ffffff" fill-opacity="1"><g transform="translate(158.730239, 228.585288)"><g><path d="M 4.53125 -7.671875 C 5.425781 -7.671875 6.15625 -7.394531 6.71875 -6.84375 C 7.28125 -6.300781 7.5625 -5.488281 7.5625 -4.40625 L 7.5625 0 L 6.953125 0 L 6.953125 -4.359375 C 6.953125 -5.253906 6.722656 -5.941406 6.265625 -6.421875 C 5.816406 -6.898438 5.207031 -7.140625 4.4375 -7.140625 C 3.625 -7.140625 2.972656 -6.878906 2.484375 -6.359375 C 2.003906 -5.835938 1.765625 -5.070312 1.765625 -4.0625 L 1.765625 0 L 1.140625 0 L 1.140625 -7.53125 L 1.765625 -7.53125 L 1.765625 -5.9375 C 1.972656 -6.5 2.320312 -6.925781 2.8125 -7.21875 C 3.3125 -7.519531 3.882812 -7.671875 4.53125 -7.671875 Z M 4.53125 -7.671875 "/></g></g></g><g fill="#ffffff" fill-opacity="1"><g transform="translate(166.828167, 228.585288)"><g><path d="M 4.453125 0.109375 C 3.742188 0.109375 3.109375 -0.046875 2.546875 -0.359375 C 1.984375 -0.671875 1.539062 -1.117188 1.21875 -1.703125 C 0.90625 -2.296875 0.75 -2.984375 0.75 -3.765625 C 0.75 -4.546875 0.910156 -5.226562 1.234375 -5.8125 C 1.554688 -6.394531 2 -6.84375 2.5625 -7.15625 C 3.132812 -7.46875 3.769531 -7.625 4.46875 -7.625 C 5.175781 -7.625 5.8125 -7.46875 6.375 -7.15625 C 6.9375 -6.84375 7.375 -6.394531 7.6875 -5.8125 C 8.007812 -5.238281 8.171875 -4.554688 8.171875 -3.765625 C 8.171875 -2.984375 8.007812 -2.296875 7.6875 -1.703125 C 7.363281 -1.117188 6.914062 -0.671875 6.34375 -0.359375 C 5.78125 -0.046875 5.148438 0.109375 4.453125 0.109375 Z M 4.453125 -0.4375 C 4.992188 -0.4375 5.5 -0.554688 5.96875 -0.796875 C 6.445312 -1.046875 6.828125 -1.421875 7.109375 -1.921875 C 7.398438 -2.421875 7.546875 -3.035156 7.546875 -3.765625 C 7.546875 -4.484375 7.398438 -5.09375 7.109375 -5.59375 C 6.828125 -6.09375 6.453125 -6.460938 5.984375 -6.703125 C 5.515625 -6.953125 5.007812 -7.078125 4.46875 -7.078125 C 3.914062 -7.078125 3.40625 -6.953125 2.9375 -6.703125 C 2.476562 -6.460938 2.101562 -6.09375 1.8125 -5.59375 C 1.53125 -5.09375 1.390625 -4.484375 1.390625 -3.765625 C 1.390625 -3.035156 1.53125 -2.421875 1.8125 -1.921875 C 2.09375 -1.421875 2.460938 -1.046875 2.921875 -0.796875 C 3.390625 -0.554688 3.898438 -0.4375 4.453125 -0.4375 Z M 4.453125 -0.4375 "/></g></g></g><g fill="#ffffff" fill-opacity="1"><g transform="translate(175.230642, 228.585288)"><g><path d="M 1.765625 -10.25 L 1.765625 0 L 1.140625 0 L 1.140625 -10.25 Z M 1.765625 -10.25 "/></g></g></g><g fill="#ffffff" fill-opacity="1"><g transform="translate(177.611287, 228.585288)"><g><path d="M 4.453125 0.109375 C 3.742188 0.109375 3.109375 -0.046875 2.546875 -0.359375 C 1.984375 -0.671875 1.539062 -1.117188 1.21875 -1.703125 C 0.90625 -2.296875 0.75 -2.984375 0.75 -3.765625 C 0.75 -4.546875 0.910156 -5.226562 1.234375 -5.8125 C 1.554688 -6.394531 2 -6.84375 2.5625 -7.15625 C 3.132812 -7.46875 3.769531 -7.625 4.46875 -7.625 C 5.175781 -7.625 5.8125 -7.46875 6.375 -7.15625 C 6.9375 -6.84375 7.375 -6.394531 7.6875 -5.8125 C 8.007812 -5.238281 8.171875 -4.554688 8.171875 -3.765625 C 8.171875 -2.984375 8.007812 -2.296875 7.6875 -1.703125 C 7.363281 -1.117188 6.914062 -0.671875 6.34375 -0.359375 C 5.78125 -0.046875 5.148438 0.109375 4.453125 0.109375 Z M 4.453125 -0.4375 C 4.992188 -0.4375 5.5 -0.554688 5.96875 -0.796875 C 6.445312 -1.046875 6.828125 -1.421875 7.109375 -1.921875 C 7.398438 -2.421875 7.546875 -3.035156 7.546875 -3.765625 C 7.546875 -4.484375 7.398438 -5.09375 7.109375 -5.59375 C 6.828125 -6.09375 6.453125 -6.460938 5.984375 -6.703125 C 5.515625 -6.953125 5.007812 -7.078125 4.46875 -7.078125 C 3.914062 -7.078125 3.40625 -6.953125 2.9375 -6.703125 C 2.476562 -6.460938 2.101562 -6.09375 1.8125 -5.59375 C 1.53125 -5.09375 1.390625 -4.484375 1.390625 -3.765625 C 1.390625 -3.035156 1.53125 -2.421875 1.8125 -1.921875 C 2.09375 -1.421875 2.460938 -1.046875 2.921875 -0.796875 C 3.390625 -0.554688 3.898438 -0.4375 4.453125 -0.4375 Z M 4.453125 -0.4375 "/></g></g></g><g fill="#ffffff" fill-opacity="1"><g transform="translate(186.013762, 228.585288)"><g><path d="M 4.375 -7.625 C 5.175781 -7.625 5.851562 -7.429688 6.40625 -7.046875 C 6.957031 -6.660156 7.34375 -6.171875 7.5625 -5.578125 L 7.5625 -7.53125 L 8.1875 -7.53125 L 8.1875 0.234375 C 8.1875 0.929688 8.035156 1.539062 7.734375 2.0625 C 7.429688 2.582031 7.019531 2.984375 6.5 3.265625 C 5.976562 3.546875 5.398438 3.6875 4.765625 3.6875 C 3.828125 3.6875 3.046875 3.457031 2.421875 3 C 1.804688 2.550781 1.398438 1.941406 1.203125 1.171875 L 1.828125 1.171875 C 2.015625 1.773438 2.359375 2.253906 2.859375 2.609375 C 3.367188 2.960938 4.003906 3.140625 4.765625 3.140625 C 5.296875 3.140625 5.769531 3.019531 6.1875 2.78125 C 6.613281 2.550781 6.945312 2.21875 7.1875 1.78125 C 7.4375 1.34375 7.5625 0.828125 7.5625 0.234375 L 7.5625 -1.96875 C 7.34375 -1.363281 6.953125 -0.863281 6.390625 -0.46875 C 5.835938 -0.0820312 5.164062 0.109375 4.375 0.109375 C 3.675781 0.109375 3.050781 -0.046875 2.5 -0.359375 C 1.945312 -0.679688 1.515625 -1.132812 1.203125 -1.71875 C 0.898438 -2.3125 0.75 -2.992188 0.75 -3.765625 C 0.75 -4.546875 0.898438 -5.226562 1.203125 -5.8125 C 1.515625 -6.394531 1.945312 -6.84375 2.5 -7.15625 C 3.050781 -7.46875 3.675781 -7.625 4.375 -7.625 Z M 7.5625 -3.765625 C 7.5625 -4.421875 7.425781 -5 7.15625 -5.5 C 6.882812 -6.007812 6.507812 -6.398438 6.03125 -6.671875 C 5.5625 -6.941406 5.039062 -7.078125 4.46875 -7.078125 C 3.851562 -7.078125 3.3125 -6.945312 2.84375 -6.6875 C 2.382812 -6.425781 2.023438 -6.046875 1.765625 -5.546875 C 1.515625 -5.046875 1.390625 -4.453125 1.390625 -3.765625 C 1.390625 -3.085938 1.515625 -2.5 1.765625 -2 C 2.023438 -1.5 2.390625 -1.113281 2.859375 -0.84375 C 3.328125 -0.570312 3.863281 -0.4375 4.46875 -0.4375 C 5.039062 -0.4375 5.566406 -0.570312 6.046875 -0.84375 C 6.523438 -1.125 6.894531 -1.515625 7.15625 -2.015625 C 7.425781 -2.515625 7.5625 -3.097656 7.5625 -3.765625 Z M 7.5625 -3.765625 "/></g></g></g><g fill="#ffffff" fill-opacity="1"><g transform="translate(194.803849, 228.585288)"><g><path d="M 7.015625 -7.53125 L 2.640625 3.53125 L 2 3.53125 L 3.390625 0 L 0.234375 -7.53125 L 0.921875 -7.53125 L 3.734375 -0.6875 L 6.375 -7.53125 Z M 7.015625 -7.53125 "/></g></g></g><g fill="#ffffff" fill-opacity="1"><g transform="translate(201.534659, 228.585288)"><g/></g></g><g fill="#ffffff" fill-opacity="1"><g transform="translate(204.912026, 228.585288)"><g/></g></g><g fill="#ffffff" fill-opacity="1"><g transform="translate(208.30049, 228.585288)"><g><path d="M 8.40625 -3.375 C 8.070312 -2.789062 7.753906 -2.296875 7.453125 -1.890625 L 9.28125 0 L 8.5 0 L 7.09375 -1.421875 C 6.625 -0.878906 6.125 -0.476562 5.59375 -0.21875 C 5.0625 0.03125 4.457031 0.15625 3.78125 0.15625 C 3.164062 0.15625 2.613281 0.0351562 2.125 -0.203125 C 1.632812 -0.453125 1.25 -0.796875 0.96875 -1.234375 C 0.695312 -1.679688 0.5625 -2.191406 0.5625 -2.765625 C 0.5625 -3.453125 0.757812 -4.046875 1.15625 -4.546875 C 1.550781 -5.054688 2.125 -5.453125 2.875 -5.734375 C 2.507812 -6.117188 2.242188 -6.472656 2.078125 -6.796875 C 1.921875 -7.128906 1.84375 -7.476562 1.84375 -7.84375 C 1.84375 -8.4375 2.050781 -8.914062 2.46875 -9.28125 C 2.894531 -9.65625 3.445312 -9.84375 4.125 -9.84375 C 4.53125 -9.84375 4.90625 -9.757812 5.25 -9.59375 C 5.59375 -9.425781 5.859375 -9.1875 6.046875 -8.875 C 6.242188 -8.570312 6.34375 -8.21875 6.34375 -7.8125 L 5.71875 -7.8125 C 5.71875 -8.28125 5.5625 -8.644531 5.25 -8.90625 C 4.9375 -9.175781 4.554688 -9.3125 4.109375 -9.3125 C 3.617188 -9.3125 3.222656 -9.175781 2.921875 -8.90625 C 2.617188 -8.632812 2.46875 -8.28125 2.46875 -7.84375 C 2.46875 -7.519531 2.550781 -7.210938 2.71875 -6.921875 C 2.882812 -6.628906 3.144531 -6.300781 3.5 -5.9375 L 7.046875 -2.296875 C 7.296875 -2.671875 7.582031 -3.125 7.90625 -3.65625 L 8.6875 -5 L 9.359375 -5 Z M 3.78125 -0.40625 C 4.375 -0.40625 4.898438 -0.519531 5.359375 -0.75 C 5.816406 -0.976562 6.257812 -1.347656 6.6875 -1.859375 L 3.265625 -5.328125 L 3.234375 -5.3125 C 1.867188 -4.8125 1.1875 -3.960938 1.1875 -2.765625 C 1.1875 -2.316406 1.296875 -1.910156 1.515625 -1.546875 C 1.742188 -1.191406 2.050781 -0.910156 2.4375 -0.703125 C 2.832031 -0.503906 3.28125 -0.40625 3.78125 -0.40625 Z M 3.78125 -0.40625 "/></g></g></g><g fill="#ffffff" fill-opacity="1"><g transform="translate(217.408979, 228.585288)"><g/></g></g><g fill="#ffffff" fill-opacity="1"><g transform="translate(220.786346, 228.585288)"><g><path d="M 1.765625 -9.203125 L 1.765625 -5.140625 L 5.640625 -5.140625 L 5.640625 -4.609375 L 1.765625 -4.609375 L 1.765625 -0.53125 L 6.0625 -0.53125 L 6.0625 0 L 1.140625 0 L 1.140625 -9.734375 L 6.0625 -9.734375 L 6.0625 -9.203125 Z M 1.765625 -9.203125 "/></g></g></g><g fill="#ffffff" fill-opacity="1"><g transform="translate(227.056963, 228.585288)"><g><path d="M 5.109375 0 L 3 -3.3125 L 0.921875 0 L 0.25 0 L 2.671875 -3.796875 L 0.28125 -7.53125 L 0.984375 -7.53125 L 3.078125 -4.28125 L 5.125 -7.53125 L 5.78125 -7.53125 L 3.375 -3.78125 L 5.828125 0 Z M 5.109375 0 "/></g></g></g><g fill="#ffffff" fill-opacity="1"><g transform="translate(232.593882, 228.585288)"><g><path d="M 1.765625 -5.546875 C 1.972656 -6.148438 2.351562 -6.644531 2.90625 -7.03125 C 3.46875 -7.425781 4.148438 -7.625 4.953125 -7.625 C 5.648438 -7.625 6.273438 -7.46875 6.828125 -7.15625 C 7.378906 -6.84375 7.804688 -6.394531 8.109375 -5.8125 C 8.421875 -5.226562 8.578125 -4.546875 8.578125 -3.765625 C 8.578125 -2.992188 8.421875 -2.3125 8.109375 -1.71875 C 7.804688 -1.132812 7.378906 -0.679688 6.828125 -0.359375 C 6.273438 -0.046875 5.648438 0.109375 4.953125 0.109375 C 4.160156 0.109375 3.484375 -0.0820312 2.921875 -0.46875 C 2.367188 -0.863281 1.984375 -1.363281 1.765625 -1.96875 L 1.765625 3.546875 L 1.140625 3.546875 L 1.140625 -7.53125 L 1.765625 -7.53125 Z M 7.9375 -3.765625 C 7.9375 -4.453125 7.804688 -5.046875 7.546875 -5.546875 C 7.296875 -6.046875 6.9375 -6.425781 6.46875 -6.6875 C 6 -6.945312 5.457031 -7.078125 4.84375 -7.078125 C 4.269531 -7.078125 3.742188 -6.941406 3.265625 -6.671875 C 2.796875 -6.398438 2.425781 -6.007812 2.15625 -5.5 C 1.894531 -5 1.765625 -4.421875 1.765625 -3.765625 C 1.765625 -3.097656 1.894531 -2.515625 2.15625 -2.015625 C 2.425781 -1.515625 2.796875 -1.125 3.265625 -0.84375 C 3.742188 -0.570312 4.269531 -0.4375 4.84375 -0.4375 C 5.457031 -0.4375 6 -0.570312 6.46875 -0.84375 C 6.9375 -1.113281 7.296875 -1.5 7.546875 -2 C 7.804688 -2.5 7.9375 -3.085938 7.9375 -3.765625 Z M 7.9375 -3.765625 "/></g></g></g><g fill="#ffffff" fill-opacity="1"><g transform="translate(241.383974, 228.585288)"><g><path d="M 7.90625 -4.265625 C 7.90625 -3.929688 7.898438 -3.679688 7.890625 -3.515625 L 1.390625 -3.515625 C 1.398438 -2.847656 1.546875 -2.28125 1.828125 -1.8125 C 2.109375 -1.351562 2.472656 -1.003906 2.921875 -0.765625 C 3.378906 -0.535156 3.875 -0.421875 4.40625 -0.421875 C 5.144531 -0.421875 5.765625 -0.601562 6.265625 -0.96875 C 6.765625 -1.34375 7.078125 -1.84375 7.203125 -2.46875 L 7.859375 -2.46875 C 7.710938 -1.695312 7.332031 -1.070312 6.71875 -0.59375 C 6.113281 -0.125 5.34375 0.109375 4.40625 0.109375 C 3.707031 0.109375 3.078125 -0.046875 2.515625 -0.359375 C 1.960938 -0.671875 1.53125 -1.117188 1.21875 -1.703125 C 0.90625 -2.296875 0.75 -2.984375 0.75 -3.765625 C 0.75 -4.554688 0.898438 -5.238281 1.203125 -5.8125 C 1.515625 -6.394531 1.945312 -6.84375 2.5 -7.15625 C 3.0625 -7.46875 3.695312 -7.625 4.40625 -7.625 C 5.125 -7.625 5.75 -7.46875 6.28125 -7.15625 C 6.8125 -6.84375 7.210938 -6.429688 7.484375 -5.921875 C 7.765625 -5.410156 7.90625 -4.859375 7.90625 -4.265625 Z M 7.296875 -4.03125 C 7.316406 -4.695312 7.195312 -5.257812 6.9375 -5.71875 C 6.675781 -6.1875 6.316406 -6.53125 5.859375 -6.75 C 5.410156 -6.976562 4.921875 -7.09375 4.390625 -7.09375 C 3.867188 -7.09375 3.382812 -6.976562 2.9375 -6.75 C 2.488281 -6.53125 2.117188 -6.1875 1.828125 -5.71875 C 1.546875 -5.257812 1.398438 -4.695312 1.390625 -4.03125 Z M 7.296875 -4.03125 "/></g></g></g><g fill="#ffffff" fill-opacity="1"><g transform="translate(249.509591, 228.585288)"><g><path d="M 1.765625 -5.96875 C 1.941406 -6.53125 2.265625 -6.953125 2.734375 -7.234375 C 3.210938 -7.523438 3.816406 -7.671875 4.546875 -7.671875 L 4.546875 -7.03125 L 4.34375 -7.03125 C 3.601562 -7.03125 2.988281 -6.816406 2.5 -6.390625 C 2.007812 -5.972656 1.765625 -5.289062 1.765625 -4.34375 L 1.765625 0 L 1.140625 0 L 1.140625 -7.53125 L 1.765625 -7.53125 Z M 1.765625 -5.96875 "/></g></g></g><g fill="#ffffff" fill-opacity="1"><g transform="translate(253.828309, 228.585288)"><g><path d="M 2.0625 -6.984375 L 2.0625 -2.015625 C 2.0625 -1.453125 2.160156 -1.066406 2.359375 -0.859375 C 2.566406 -0.648438 2.929688 -0.546875 3.453125 -0.546875 L 4.296875 -0.546875 L 4.296875 0 L 3.359375 0 C 2.703125 0 2.21875 -0.148438 1.90625 -0.453125 C 1.59375 -0.765625 1.4375 -1.285156 1.4375 -2.015625 L 1.4375 -6.984375 L 0.3125 -6.984375 L 0.3125 -7.53125 L 1.4375 -7.53125 L 1.4375 -9.4375 L 2.0625 -9.4375 L 2.0625 -7.53125 L 4.296875 -7.53125 L 4.296875 -6.984375 Z M 2.0625 -6.984375 "/></g></g></g><g fill="#ffffff" fill-opacity="1"><g transform="translate(258.105492, 228.585288)"><g><path d="M 1.453125 -9.203125 C 1.304688 -9.203125 1.179688 -9.25 1.078125 -9.34375 C 0.972656 -9.445312 0.921875 -9.582031 0.921875 -9.75 C 0.921875 -9.90625 0.972656 -10.03125 1.078125 -10.125 C 1.179688 -10.226562 1.304688 -10.28125 1.453125 -10.28125 C 1.597656 -10.28125 1.722656 -10.226562 1.828125 -10.125 C 1.929688 -10.03125 1.984375 -9.90625 1.984375 -9.75 C 1.984375 -9.582031 1.929688 -9.445312 1.828125 -9.34375 C 1.722656 -9.25 1.597656 -9.203125 1.453125 -9.203125 Z M 1.765625 -7.53125 L 1.765625 0 L 1.140625 0 L 1.140625 -7.53125 Z M 1.765625 -7.53125 "/></g></g></g><g fill="#ffffff" fill-opacity="1"><g transform="translate(260.486142, 228.585288)"><g><path d="M 3.640625 0.109375 C 2.804688 0.109375 2.125 -0.0703125 1.59375 -0.4375 C 1.0625 -0.8125 0.757812 -1.34375 0.6875 -2.03125 L 1.328125 -2.03125 C 1.378906 -1.53125 1.601562 -1.132812 2 -0.84375 C 2.40625 -0.5625 2.953125 -0.421875 3.640625 -0.421875 C 4.210938 -0.421875 4.664062 -0.566406 5 -0.859375 C 5.34375 -1.148438 5.515625 -1.507812 5.515625 -1.9375 C 5.515625 -2.238281 5.421875 -2.484375 5.234375 -2.671875 C 5.054688 -2.859375 4.832031 -3 4.5625 -3.09375 C 4.300781 -3.195312 3.941406 -3.3125 3.484375 -3.4375 C 2.921875 -3.582031 2.46875 -3.726562 2.125 -3.875 C 1.789062 -4.019531 1.503906 -4.234375 1.265625 -4.515625 C 1.023438 -4.804688 0.90625 -5.191406 0.90625 -5.671875 C 0.90625 -6.015625 1.007812 -6.335938 1.21875 -6.640625 C 1.425781 -6.941406 1.71875 -7.179688 2.09375 -7.359375 C 2.476562 -7.535156 2.910156 -7.625 3.390625 -7.625 C 4.179688 -7.625 4.816406 -7.425781 5.296875 -7.03125 C 5.785156 -6.632812 6.046875 -6.09375 6.078125 -5.40625 L 5.453125 -5.40625 C 5.429688 -5.90625 5.238281 -6.3125 4.875 -6.625 C 4.519531 -6.9375 4.019531 -7.09375 3.375 -7.09375 C 2.84375 -7.09375 2.398438 -6.953125 2.046875 -6.671875 C 1.703125 -6.398438 1.53125 -6.066406 1.53125 -5.671875 C 1.53125 -5.316406 1.628906 -5.03125 1.828125 -4.8125 C 2.023438 -4.59375 2.269531 -4.425781 2.5625 -4.3125 C 2.851562 -4.195312 3.238281 -4.078125 3.71875 -3.953125 C 4.238281 -3.804688 4.65625 -3.664062 4.96875 -3.53125 C 5.289062 -3.40625 5.5625 -3.210938 5.78125 -2.953125 C 6.007812 -2.703125 6.125 -2.363281 6.125 -1.9375 C 6.125 -1.550781 6.015625 -1.203125 5.796875 -0.890625 C 5.585938 -0.578125 5.296875 -0.332031 4.921875 -0.15625 C 4.546875 0.0195312 4.117188 0.109375 3.640625 0.109375 Z M 3.640625 0.109375 "/></g></g></g><g fill="#ffffff" fill-opacity="1"><g transform="translate(266.839819, 228.585288)"><g><path d="M 7.90625 -4.265625 C 7.90625 -3.929688 7.898438 -3.679688 7.890625 -3.515625 L 1.390625 -3.515625 C 1.398438 -2.847656 1.546875 -2.28125 1.828125 -1.8125 C 2.109375 -1.351562 2.472656 -1.003906 2.921875 -0.765625 C 3.378906 -0.535156 3.875 -0.421875 4.40625 -0.421875 C 5.144531 -0.421875 5.765625 -0.601562 6.265625 -0.96875 C 6.765625 -1.34375 7.078125 -1.84375 7.203125 -2.46875 L 7.859375 -2.46875 C 7.710938 -1.695312 7.332031 -1.070312 6.71875 -0.59375 C 6.113281 -0.125 5.34375 0.109375 4.40625 0.109375 C 3.707031 0.109375 3.078125 -0.046875 2.515625 -0.359375 C 1.960938 -0.671875 1.53125 -1.117188 1.21875 -1.703125 C 0.90625 -2.296875 0.75 -2.984375 0.75 -3.765625 C 0.75 -4.554688 0.898438 -5.238281 1.203125 -5.8125 C 1.515625 -6.394531 1.945312 -6.84375 2.5 -7.15625 C 3.0625 -7.46875 3.695312 -7.625 4.40625 -7.625 C 5.125 -7.625 5.75 -7.46875 6.28125 -7.15625 C 6.8125 -6.84375 7.210938 -6.429688 7.484375 -5.921875 C 7.765625 -5.410156 7.90625 -4.859375 7.90625 -4.265625 Z M 7.296875 -4.03125 C 7.316406 -4.695312 7.195312 -5.257812 6.9375 -5.71875 C 6.675781 -6.1875 6.316406 -6.53125 5.859375 -6.75 C 5.410156 -6.976562 4.921875 -7.09375 4.390625 -7.09375 C 3.867188 -7.09375 3.382812 -6.976562 2.9375 -6.75 C 2.488281 -6.53125 2.117188 -6.1875 1.828125 -5.71875 C 1.546875 -5.257812 1.398438 -4.695312 1.390625 -4.03125 Z M 7.296875 -4.03125 "/></g></g></g><g clip-path="url(#9e510212cb)"><g clip-path="url(#9895ad43f0)"><g clip-path="url(#920e3f77dd)"><path fill="#18cb96" d="M 302.109375 154.402344 L 279.425781 153.394531 C 275.042969 153.199219 274.304688 161.734375 279.496094 161.875 L 293.609375 162.257812 L 292.53125 176.457031 C 292.203125 180.78125 300.636719 181.238281 300.878906 176.84375 Z M 302.109375 154.402344 " fill-opacity="1" fill-rule="nonzero"/></g></g></g></svg>