<svg width="23" height="17" viewBox="0 0 23 17" fill="none" xmlns="http://www.w3.org/2000/svg">
<path d="M1.15 2.3H21.85C22.155 2.3 22.4475 2.17884 22.6632 1.96317C22.8788 1.74751 23 1.455 23 1.15C23 0.845001 22.8788 0.552494 22.6632 0.336827C22.4475 0.121161 22.155 0 21.85 0H1.15C0.845001 0 0.552494 0.121161 0.336827 0.336827C0.12116 0.552494 0 0.845001 0 1.15C0 1.455 0.12116 1.74751 0.336827 1.96317C0.552494 2.17884 0.845001 2.3 1.15 2.3ZM21.85 6.9H1.15C0.845001 6.9 0.552494 7.02116 0.336827 7.23683C0.12116 7.45249 0 7.745 0 8.05C0 8.355 0.12116 8.64751 0.336827 8.86317C0.552494 9.07884 0.845001 9.2 1.15 9.2H21.85C22.155 9.2 22.4475 9.07884 22.6632 8.86317C22.8788 8.64751 23 8.355 23 8.05C23 7.745 22.8788 7.45249 22.6632 7.23683C22.4475 7.02116 22.155 6.9 21.85 6.9ZM21.85 13.8H1.15C0.845001 13.8 0.552494 13.9212 0.336827 14.1368C0.12116 14.3525 0 14.645 0 14.95C0 15.255 0.12116 15.5475 0.336827 15.7632C0.552494 15.9788 0.845001 16.1 1.15 16.1H21.85C22.155 16.1 22.4475 15.9788 22.6632 15.7632C22.8788 15.5475 23 15.255 23 14.95C23 14.645 22.8788 14.3525 22.6632 14.1368C22.4475 13.9212 22.155 13.8 21.85 13.8Z" fill="white"/>
</svg>
