<svg width="33" height="27" viewBox="0 0 33 27" fill="none" xmlns="http://www.w3.org/2000/svg">
<path d="M28.8356 20.5168C28.9093 20.5168 28.9815 20.544 29.0373 20.5998C29.4221 20.9846 29.6347 21.4966 29.6347 22.0412C29.6347 22.5858 29.4221 23.0978 29.0373 23.4826C28.9256 23.5943 28.7456 23.5943 28.6339 23.4826C28.5222 23.3709 28.5222 23.1909 28.6339 23.0792C28.9116 22.8015 29.0637 22.4338 29.0637 22.0412C29.0637 21.6495 28.9109 21.281 28.6339 21.0032C28.5222 20.8915 28.5222 20.7116 28.6339 20.5998C28.6898 20.544 28.7627 20.5168 28.8356 20.5168Z" fill="#003431" stroke="#003431" stroke-width="0.5"/>
<path d="M19.2367 3.37748C19.3089 3.37748 19.3818 3.38135 19.4555 3.38911C19.997 3.44652 20.4842 3.71106 20.8263 4.13463C20.9256 4.25721 20.907 4.43718 20.7836 4.53648C20.661 4.63578 20.4811 4.61716 20.3818 4.49382C20.1351 4.18894 19.7844 3.99887 19.395 3.95698C19.0048 3.91509 18.6223 4.02835 18.3174 4.27505C18.1948 4.37435 18.0149 4.35573 17.9156 4.23238C17.8163 4.10981 17.8349 3.92983 17.9582 3.83053C18.3252 3.53418 18.7728 3.37748 19.2367 3.37748Z" fill="#003431" stroke="#003431" stroke-width="0.5"/>
<path d="M28.8355 15.3107C28.9092 15.3107 28.9813 15.3378 29.0372 15.3937C29.422 15.7784 29.6345 16.2905 29.6345 16.8351C29.6345 17.3796 29.422 17.8917 29.0372 18.2764C28.9255 18.3882 28.7455 18.3882 28.6338 18.2764C28.5221 18.1647 28.5221 17.9848 28.6338 17.873C28.9115 17.5953 29.0636 17.2276 29.0636 16.8351C29.0636 16.4433 28.9107 16.0748 28.6338 15.7971C28.5221 15.6854 28.5221 15.5054 28.6338 15.3937C28.6896 15.3378 28.7626 15.3107 28.8355 15.3107Z" fill="#003431" stroke="#003431" stroke-width="0.5"/>
<path d="M27.2553 10.0198C27.2887 10.0198 27.3228 10.026 27.3554 10.0384C27.8659 10.2292 28.2708 10.607 28.4966 11.102C28.7223 11.5969 28.7417 12.1508 28.5509 12.6613C28.4958 12.8087 28.3313 12.884 28.1839 12.8281C28.0365 12.7722 27.9613 12.6086 28.0171 12.4612C28.1545 12.0942 28.1413 11.6955 27.9784 11.3378C27.8154 10.9817 27.5237 10.7087 27.1568 10.5721C27.0094 10.5171 26.9342 10.3526 26.99 10.2052C27.0304 10.0904 27.139 10.0198 27.2553 10.0198Z" fill="#003431" stroke="#003431" stroke-width="0.5"/>
<path d="M23.6991 5.8872C24.1995 5.8872 24.6758 6.06874 25.0521 6.40387C25.4586 6.76616 25.6991 7.26498 25.7317 7.80803C25.7402 7.96551 25.62 8.09972 25.464 8.1098C25.3065 8.11834 25.1723 7.99809 25.1623 7.84216C25.139 7.45039 24.966 7.09121 24.6735 6.83055C24.381 6.56989 24.004 6.43878 23.6123 6.4605C23.4548 6.46904 23.3206 6.34879 23.3105 6.19286C23.3019 6.03538 23.4222 5.90117 23.5781 5.89108C23.6192 5.88798 23.6588 5.8872 23.6991 5.8872Z" fill="#003431" stroke="#003431" stroke-width="0.5"/>
<path d="M4.16109 20.5167C4.23479 20.5167 4.30694 20.5439 4.36279 20.5997C4.47451 20.7114 4.47451 20.8914 4.36279 21.0031C3.79027 21.5756 3.79027 22.5066 4.3628 23.0791C4.47451 23.1908 4.47451 23.3708 4.3628 23.4825C4.25108 23.5942 4.07111 23.5942 3.95939 23.4825C3.57461 23.0977 3.36282 22.5857 3.36282 22.0411C3.36282 21.4965 3.57538 20.9845 3.95939 20.5997C4.01525 20.5439 4.08739 20.5167 4.16109 20.5167Z" fill="#003431" stroke="#003431" stroke-width="0.5"/>
<path d="M13.7593 3.37764C14.2239 3.37764 14.6708 3.53512 15.037 3.83146C15.1595 3.93076 15.1781 4.10997 15.0796 4.23332C14.9803 4.35589 14.8011 4.37451 14.6778 4.27598C14.0478 3.76708 13.1223 3.86482 12.6134 4.49475C12.5141 4.61733 12.3349 4.63594 12.2116 4.53742C12.089 4.43812 12.0704 4.25892 12.1689 4.13557C12.511 3.71199 12.9974 3.44746 13.5397 3.39005C13.6142 3.38152 13.6871 3.37764 13.7593 3.37764Z" fill="#003431" stroke="#003431" stroke-width="0.5"/>
<path d="M4.16132 15.3107C4.23502 15.3107 4.30717 15.3378 4.36302 15.3937C4.47474 15.5054 4.47474 15.6854 4.36302 15.7971C3.7905 16.3696 3.7905 17.3005 4.36302 17.873C4.47474 17.9848 4.47474 18.1647 4.36302 18.2764C4.25131 18.3882 4.07133 18.3882 3.95962 18.2764C3.57484 17.8917 3.36305 17.3796 3.36305 16.8351C3.36305 16.2905 3.57561 15.7784 3.95962 15.3937C4.01548 15.3378 4.08762 15.3107 4.16132 15.3107Z" fill="#003431" stroke="#003431" stroke-width="0.5"/>
<path d="M5.74121 10.0199C5.8568 10.0199 5.96619 10.0905 6.00808 10.2053C6.06316 10.3527 5.98869 10.5171 5.84129 10.5722C5.08336 10.8561 4.69702 11.7033 4.98095 12.4612C5.03603 12.6086 4.96156 12.7731 4.81416 12.8282C4.66676 12.8832 4.5023 12.8088 4.44722 12.6614C4.25638 12.1509 4.27577 11.5978 4.50152 11.1021C4.72728 10.6071 5.13223 10.2285 5.64269 10.0385C5.67527 10.0253 5.70863 10.0199 5.74121 10.0199Z" fill="#003431" stroke="#003431" stroke-width="0.5"/>
<path d="M9.29777 5.88729C9.33733 5.88729 9.37767 5.88806 9.41802 5.89116C9.5755 5.8997 9.69574 6.03546 9.68566 6.19294C9.67557 6.35042 9.54136 6.47067 9.38388 6.46058C8.99211 6.43731 8.61509 6.56919 8.32262 6.83063C8.03015 7.09129 7.85638 7.45047 7.83388 7.84224C7.82535 7.99972 7.68959 8.11997 7.5321 8.10988C7.37462 8.10135 7.25438 7.96559 7.26446 7.80811C7.29627 7.26429 7.53676 6.76546 7.94404 6.40395C8.32107 6.06727 8.79817 5.88729 9.29777 5.88729Z" fill="#003431" stroke="#003431" stroke-width="0.5"/>
<path d="M13.8081 0.715917C14.8197 0.715917 15.784 1.11389 16.4984 1.81907C17.2129 1.11544 18.1772 0.715917 19.1888 0.715917C19.9925 0.715917 20.7621 0.961841 21.4138 1.42808C21.7279 1.65151 22.0057 1.92147 22.2392 2.22868C22.475 2.53899 22.662 2.88111 22.7946 3.2465L22.9413 3.65456C23.271 3.56379 23.6123 3.51802 23.9583 3.51802C24.4757 3.51802 24.9777 3.61965 25.4501 3.8198C25.9063 4.01296 26.3167 4.28914 26.6681 4.64134C27.0203 4.99354 27.2957 5.40315 27.4896 5.85931C27.6898 6.33176 27.7914 6.83369 27.7914 7.35113C27.7914 7.52413 27.7798 7.69712 27.7573 7.86857C28.5113 8.01209 29.215 8.38213 29.7619 8.93138C30.0699 9.24014 30.3197 9.59467 30.5066 9.98644C30.6998 10.3914 30.8185 10.8258 30.8612 11.2766C30.9418 12.133 30.7347 12.9817 30.2747 13.6985C31.3468 14.4045 32 15.6046 32 16.9002C32 17.4517 31.8852 17.9847 31.6587 18.4835C31.4818 18.8729 31.2444 19.2244 30.9527 19.5339C31.2452 19.8427 31.4826 20.1949 31.6587 20.5835C31.8852 21.0824 32 21.6145 32 22.1669C32 22.6843 31.8984 23.1863 31.6982 23.6587C31.5051 24.1149 31.2289 24.5253 30.8767 24.8767C30.5245 25.2289 30.1149 25.5043 29.6587 25.6982C29.1863 25.8984 28.6843 26 28.1669 26C27.6448 26 27.1382 25.8976 26.6619 25.6959C26.2011 25.5012 25.7884 25.2219 25.4323 24.8674C25.0778 24.5128 24.7985 24.0986 24.6038 23.6378C24.4021 23.1614 24.2996 22.6541 24.2996 22.1328L24.2996 19.6984C24.2996 16.7318 23.3835 13.8444 21.7202 11.569C20.2004 9.48994 18.2486 8.2487 16.5 8.2487C14.7514 8.2487 12.7988 9.48917 11.2798 11.569C9.61654 13.8451 8.70035 16.7318 8.70035 19.6984L8.70035 22.1328C8.70035 22.6549 8.59795 23.1614 8.39625 23.6378C8.20153 24.0986 7.92225 24.5113 7.56772 24.8674C7.21319 25.2219 6.79893 25.5012 6.33811 25.6959C5.86179 25.8976 5.35443 26 4.83311 26C4.31567 26 3.81374 25.8984 3.34129 25.6982C2.88514 25.5051 2.47475 25.2289 2.12332 24.8767C1.77112 24.5245 1.49572 24.1149 1.30178 23.6587C1.10163 23.1863 1 22.6843 1 22.1669C1 21.6153 1.11482 21.0824 1.34134 20.5835C1.51822 20.1941 1.75561 19.8427 2.0473 19.5339C1.75483 19.2252 1.51744 18.873 1.34134 18.4843C1.11482 17.9855 1 17.4533 1 16.9009C1 15.6046 1.6532 14.4053 2.72533 13.6993C2.26607 12.9817 2.05816 12.133 2.13884 11.2773C2.18151 10.8266 2.30097 10.3914 2.49414 9.98489C2.6811 9.59312 2.93168 9.23782 3.24044 8.92906C3.78736 8.38136 4.48944 8.01131 5.24272 7.86857C5.21944 7.6979 5.20858 7.5249 5.20858 7.35113C5.20858 6.83369 5.31021 6.33176 5.51036 5.85931C5.70353 5.40315 5.9797 4.99277 6.33191 4.64134C6.68411 4.28914 7.09372 4.01374 7.54987 3.8198C8.02232 3.61965 8.52425 3.51802 9.04169 3.51802C9.38846 3.51802 9.72903 3.56379 10.0587 3.65456L10.2054 3.2465C10.338 2.88111 10.525 2.53899 10.7608 2.22868C10.9943 1.92147 11.272 1.65306 11.5862 1.42886C12.2356 0.961841 13.0051 0.715917 13.8081 0.715917ZM16.4984 2.52115C16.4178 2.52115 16.3386 2.48779 16.2828 2.42185C15.6622 1.70038 14.7599 1.28611 13.8088 1.28611C12.4388 1.28611 11.2061 2.1511 10.7399 3.43889L10.5001 4.10373C10.4474 4.25113 10.2845 4.32871 10.1355 4.27596C9.78411 4.15028 9.41484 4.08666 9.03781 4.08666C7.23879 4.08666 5.77567 5.55055 5.77568 7.3488C5.77568 7.58153 5.8005 7.81427 5.84937 8.03924C5.85093 8.047 5.85325 8.05398 5.85403 8.06251C5.8773 8.21457 5.77412 8.35809 5.62285 8.38524C5.61121 8.38679 5.59957 8.38912 5.58871 8.38989C4.06043 8.55979 2.8479 9.7925 2.7036 11.3278C2.6268 12.1446 2.85721 12.953 3.3537 13.6062C3.39016 13.652 3.41189 13.7094 3.41577 13.7707C3.4212 13.8793 3.36379 13.9817 3.26837 14.0344C2.21952 14.6077 1.56787 15.7047 1.56787 16.8986C1.56787 17.8156 1.95731 18.6953 2.63611 19.3128C2.69973 19.3656 2.73774 19.4455 2.73774 19.5316C2.73774 19.6154 2.7005 19.6945 2.63844 19.748C1.95731 20.3655 1.56709 21.246 1.56709 22.1653C1.56709 23.9644 3.03098 25.4275 4.82923 25.4275C6.64687 25.4275 8.12628 23.9489 8.12628 22.1304L8.12628 19.696C8.12628 18.1088 8.3784 16.5417 8.87645 15.0391C9.10918 14.337 9.39467 13.652 9.7267 13.005C10.0486 12.3758 10.4156 11.7793 10.8174 11.23C11.6064 10.1509 12.5335 9.25643 13.4977 8.64202C13.988 8.33093 14.4884 8.09044 14.9841 7.92753C15.4961 7.76074 16.0058 7.67462 16.4984 7.67462C16.9911 7.67462 17.5007 7.75919 18.0128 7.92753C18.5093 8.09044 19.0096 8.33016 19.4991 8.64202C20.4642 9.25566 21.3905 10.1501 22.1795 11.23C22.5813 11.7793 22.9475 12.3758 23.2702 13.005C23.6022 13.652 23.8877 14.3362 24.1204 15.0391C24.6185 16.5425 24.8706 18.1096 24.8706 19.696L24.8706 22.1304C24.8706 23.9481 26.3492 25.4275 28.1677 25.4275C29.9667 25.4275 31.4298 23.9636 31.4298 22.1653C31.4298 21.2445 31.038 20.3624 30.3538 19.7441C30.2933 19.6898 30.2599 19.613 30.2599 19.5331C30.2599 19.4525 30.2941 19.3757 30.3538 19.3221C31.0373 18.7038 31.4298 17.8225 31.4298 16.9009C31.4298 15.7117 30.7828 14.6163 29.7394 14.0414C29.6719 14.0088 29.6199 13.9491 29.5951 13.877C29.5633 13.7831 29.5827 13.6807 29.6447 13.6054C30.1389 12.9538 30.3701 12.1454 30.2933 11.3301C30.149 9.79405 28.9334 8.55824 27.4012 8.39144C27.3996 8.39144 27.3989 8.39144 27.3965 8.39067L27.3903 8.38989C27.3104 8.37981 27.2391 8.33714 27.1925 8.27197C27.1467 8.20681 27.1297 8.12458 27.1467 8.04623C27.1964 7.81892 27.2212 7.58541 27.2212 7.35035C27.2212 5.55133 25.7573 4.08822 23.9591 4.08822C23.5821 4.08822 23.2136 4.15183 22.8614 4.2775C22.7124 4.33026 22.5503 4.25346 22.4967 4.10528L22.2578 3.44044C21.7923 2.15266 20.5589 1.28767 19.1888 1.28767C18.2408 1.28767 17.3425 1.69883 16.7211 2.41564C16.7071 2.43426 16.6893 2.44978 16.6699 2.46529C16.6187 2.50253 16.5582 2.52115 16.4984 2.52115Z" fill="#003431" stroke="#003431" stroke-width="0.5"/>
</svg>
