<svg width="33" height="33" viewBox="0 0 33 33" fill="none" xmlns="http://www.w3.org/2000/svg">
<path d="M30.31 10.9781H26.785C25.8676 10.9781 25.1433 11.7047 25.1433 12.625V14.2234H20.3146V6.27969C20.3146 5.35938 19.5903 4.63281 18.6729 4.63281H13.8442C12.9268 4.63281 12.2025 5.35938 12.2025 6.27969V7.82969H8.48442L5.10436 4.43906C5.34579 4.1 5.44237 3.66406 5.44237 3.22812C5.49065 2.01719 4.47664 1 3.26947 1C2.06231 1 1.04829 2.01719 1.04829 3.22812C1.04829 4.43906 2.06231 5.45625 3.26947 5.45625C3.70405 5.45625 4.13863 5.31094 4.47664 5.11719L8.00156 8.65313C8.09813 8.75 8.19471 8.79844 8.33956 8.79844H12.2508V12.2375H8.43614C8.24299 11.2203 7.32555 10.4938 6.26324 10.4938C5.05608 10.4938 4.04206 11.5109 4.04206 12.7219C4.04206 13.9328 5.05608 14.95 6.26324 14.95C7.32555 14.95 8.19471 14.2234 8.43614 13.2063H12.2508V19.8906H5.87695C5.6838 18.8734 4.76636 18.1469 3.70405 18.1469C2.49688 18.1469 1.48287 19.1641 1.48287 20.375C1.48287 21.5859 2.49688 22.6031 3.70405 22.6031C4.76636 22.6031 5.63551 21.8766 5.87695 20.8594H12.2508V24.25H8.29128C8.14642 24.25 8.04985 24.2984 7.95327 24.3953L4.42835 27.9312C4.09034 27.6891 3.65576 27.5922 3.22118 27.5922C2.01402 27.5922 1 28.6094 1 29.8203C1.04829 30.9828 2.06231 32 3.26947 32C4.47664 32 5.49065 30.9828 5.49065 29.7719C5.49065 29.3359 5.34579 28.9 5.15265 28.5609L8.53271 25.1703H12.2508V26.7203C12.2508 27.6406 12.9751 28.3672 13.8925 28.3672H18.7212C19.6386 28.3672 20.3629 27.6406 20.3629 26.7203V18.7766H25.1916V20.375C25.1916 21.2953 25.9159 22.0219 26.8333 22.0219H30.3583C31.2757 22.0219 32 21.2953 32 20.375V12.5766C31.9517 11.7047 31.2274 10.9781 30.31 10.9781ZM1.96573 3.22812C1.96573 2.50156 2.54517 1.96875 3.22118 1.96875C3.94548 1.96875 4.47664 2.55 4.47664 3.22812C4.52492 3.90625 3.94548 4.4875 3.26947 4.4875C2.54517 4.4875 1.96573 3.90625 1.96573 3.22812ZM6.26324 13.9328C5.53894 13.9328 5.00779 13.3516 5.00779 12.6734C5.00779 11.9469 5.58723 11.4141 6.26324 11.4141C6.98754 11.4141 7.51869 11.9953 7.51869 12.6734C7.56698 13.3516 6.98754 13.9328 6.26324 13.9328ZM3.70405 21.6344C2.97975 21.6344 2.4486 21.0531 2.4486 20.375C2.4486 19.6484 3.02804 19.1156 3.70405 19.1156C4.42835 19.1156 4.9595 19.6969 4.9595 20.375C4.9595 21.0531 4.38006 21.6344 3.70405 21.6344ZM3.26947 31.0797C2.54517 31.0797 2.01402 30.4984 2.01402 29.8203C2.01402 29.0938 2.59346 28.5609 3.26947 28.5609C3.60748 28.5609 3.94548 28.7063 4.13863 28.9484C4.38006 29.1906 4.52492 29.4813 4.52492 29.8203C4.52492 30.4984 3.94548 31.0797 3.26947 31.0797ZM19.3972 26.7203C19.3972 27.1078 19.1075 27.3984 18.7212 27.3984H13.8925C13.5062 27.3984 13.2165 27.1078 13.2165 26.7203V6.27969C13.2165 5.89219 13.5062 5.60156 13.8925 5.60156H18.7212C19.1075 5.60156 19.3972 5.89219 19.3972 6.27969V26.7203ZM20.3146 17.8562V15.1922H25.1433V17.8562H20.3146ZM31.0343 20.4234C31.0343 20.8109 30.7446 21.1016 30.3583 21.1016H26.8333C26.447 21.1016 26.1573 20.8109 26.1573 20.4234V12.5766C26.1573 12.1891 26.447 11.8984 26.8333 11.8984H30.3583C30.7446 11.8984 31.0343 12.1891 31.0343 12.5766V20.4234Z" fill="#003431" stroke="#003431" stroke-width="0.2"/>
</svg>
