<svg width="41" height="23" viewBox="0 0 41 23" fill="none" xmlns="http://www.w3.org/2000/svg">
<path d="M40.1009 10.7216L34.7656 0.68853C34.4295 0.0559184 33.6447 -0.183473 33.0121 0.151057L30.0646 1.71753C29.432 2.05524 29.1926 2.84004 29.5272 3.47265L29.9362 4.2416C28.0384 5.12473 26.621 4.94082 25.2462 4.76162V4.76321C24.3139 4.59197 23.3595 4.57612 22.4209 4.71723C21.6091 4.93286 20.8322 5.26741 20.1172 5.70974C17.907 4.53649 15.7791 4.34304 13.7878 5.13103C12.911 5.47825 12.0644 5.16749 11.0338 4.50791L11.4682 3.68981H11.4698C11.8059 3.0572 11.5649 2.2708 10.9323 1.93469L7.98492 0.368216H7.98651C7.35231 0.032095 6.5675 0.273085 6.23138 0.904106L0.897654 10.9404C0.561533 11.573 0.802523 12.3578 1.43354 12.694L4.38096 14.2604V14.262C4.56804 14.3619 4.77574 14.4126 4.98662 14.4142C5.11663 14.4126 5.24505 14.3936 5.36872 14.3556C5.6985 14.2573 5.97438 14.0289 6.13609 13.7245L6.29305 13.428C7.24753 13.9211 8.91701 15.199 10.6705 16.5404C15.4129 20.1727 19.3288 22.9996 21.8165 22.9996C22.1764 23.006 22.5347 22.9346 22.8661 22.7887C23.5685 22.4685 24.0076 21.8057 24.1757 20.8132C24.7386 20.9623 25.3395 20.8687 25.831 20.558C26.2511 20.2282 26.5159 19.7383 26.5619 19.2055C27.5195 19.2436 28.2108 19.0327 28.669 18.565H28.6674C29.0384 18.1591 29.2366 17.6248 29.2176 17.0762C30.2497 17.1888 30.9457 17.0128 31.3374 16.5451C31.6894 16.0441 31.7639 15.4004 31.5372 14.8312L34.7129 13.2314L34.8619 13.5121C35.1996 14.1447 35.9844 14.3856 36.617 14.0495L39.5645 12.4831V12.4815C39.8689 12.3197 40.0972 12.0439 40.1971 11.7125C40.2985 11.3827 40.2637 11.026 40.1003 10.7216L40.1009 10.7216ZM5.28538 13.2727C5.19818 13.4344 4.99682 13.4946 4.8351 13.4106L1.88768 11.8441C1.72596 11.7553 1.66571 11.5556 1.74975 11.3938L7.08348 1.35752C7.12629 1.27983 7.19604 1.22117 7.28166 1.1958C7.31337 1.18629 7.34667 1.18154 7.38155 1.18154C7.43545 1.18154 7.48777 1.19422 7.53534 1.21959L10.4828 2.78606V2.78764C10.6445 2.87326 10.7063 3.07462 10.6207 3.23793L5.28538 13.2727ZM30.5976 15.9252C30.5024 16.0409 30.1425 16.2772 28.8757 16.0504L24.4142 13.2663C24.1891 13.1252 23.891 13.195 23.7499 13.4201C23.6104 13.6453 23.6786 13.9433 23.9037 14.0844L28.2447 16.794L28.2462 16.7924C28.3176 17.1809 28.2209 17.5804 27.9783 17.8912C27.6882 18.1877 27.1015 18.3002 26.2787 18.2194L22.8128 16.0996V16.098C22.586 15.9664 22.2959 16.0409 22.1595 16.2644C22.0232 16.488 22.0898 16.7797 22.3102 16.9208L25.6222 18.9503C25.6207 19.2626 25.4938 19.5623 25.2687 19.7795C24.9484 20.0094 24.3665 19.9 23.9274 19.762L21.8108 18.8298V18.8314C21.6934 18.7648 21.5523 18.7505 21.4239 18.7933C21.2939 18.8361 21.1892 18.9328 21.1353 19.0565C21.0798 19.1802 21.0798 19.3213 21.1353 19.4465C21.1908 19.5702 21.2955 19.6653 21.4239 19.7081L23.2472 20.512C23.1489 21.2508 22.8857 21.7217 22.4671 21.9104C20.4631 22.8236 14.9234 18.5825 11.2578 15.7779C9.35049 14.3176 7.78244 13.1174 6.74886 12.5799L10.5841 5.36454C11.6242 6.02568 12.8181 6.55524 14.1467 6.03043V6.02726C15.7797 5.39781 17.6046 5.50087 19.1586 6.30789C17.6698 7.30198 16.2096 8.6132 15.7006 9.8261C15.4073 10.3937 15.4343 11.0755 15.772 11.6177C16.6567 12.848 18.2913 13.273 19.6643 12.6324C20.2446 12.3026 20.7472 11.8492 21.1357 11.307C21.5701 10.7742 21.9142 10.3541 22.4817 10.2748C23.1952 10.1765 24.2496 10.5998 25.7098 11.5717L25.7209 11.5781C28.968 13.6186 30.1414 14.4859 30.5375 14.8521C30.7183 15.3658 30.742 15.7543 30.5993 15.9255L30.5976 15.9252ZM31.0288 14.0052V14.0036C29.4925 12.8367 27.8927 11.7553 26.2373 10.7644C24.552 9.64348 23.3153 9.18527 22.3482 9.32161C21.4064 9.45321 20.8657 10.1143 20.3885 10.6978C20.0825 11.1338 19.6877 11.5001 19.2295 11.7712C18.2941 12.1977 17.1874 11.9123 16.5738 11.0862C16.5183 11.0038 16.3534 10.7517 16.5865 10.1984C17.357 8.3703 21.2002 5.93495 22.6066 5.66382L22.605 5.66541C23.4421 5.54491 24.2919 5.56393 25.1227 5.71931C26.5782 5.90798 28.216 6.12044 30.3883 5.09461L34.26 12.3766L31.0288 14.0052ZM39.1116 11.6269L36.1642 13.1934C36.0025 13.2774 35.8011 13.2156 35.7139 13.0555L30.3785 3.02077C30.2929 2.85905 30.3548 2.65769 30.5165 2.57048L33.4639 1.00401C33.5115 0.97864 33.5638 0.965956 33.6177 0.965956C33.7414 0.964371 33.8555 1.03255 33.9158 1.14194L39.2511 11.1766V11.175C39.3336 11.3383 39.2717 11.5381 39.1116 11.6269Z" fill="#003431"/>
</svg>
